<svg viewBox="241.78378378378375 536.55 575.6756756756755 498.22499999999957" xmlns="http://www.w3.org/2000/svg"
     width="575.6756756756755px" height="498.22499999999957px">
    <g id="Master/Character/Avatar" stroke="none" stroke-width="1" fill="none" fill-rule="evenodd">
        <g id="Head" transform="translate(332.000000, 483.000000) scale(0.9978902953586498 1)">
            <g id="Head/Medium 2" stroke="none" stroke-width="1" fill="none" fill-rule="evenodd">
                <path d="M391.825164,167.5733 C361.770031,126.2073 306.431607,114.3113 258.441922,124.3723 C164.622596,141.4743 74.9877332,213.0513 58.4104393,310.3953 C32.5477467,369.2863 49.063211,462.0453 124.27883,468.9753 C134.987305,469.5793 145.594061,467.1143 156.321484,468.4453 C221.792969,478.9033 299.159657,523.6713 357.114866,470.8763 C360.019856,472.9573 363.846306,473.9633 367.103326,472.7043 C391.771313,463.1713 392.930118,435.5943 395.033319,412.9253 C397.749829,383.6343 400.297804,354.3273 402.674251,325.0083 C403.522912,274.4463 423.564653,211.2633 391.825164,167.5733 L391.825164,167.5733 Z"
                      id="Skin" fill="#edb98a"/>
                <path d="M209.9304,62.1665 C249.4304,60.0665 322.2114,78.1585 356.6714,99.3695 C412.8184,133.9285 417.1704,202.8665 414.8804,214.7865 C414.0104,219.3355 411.2304,223.5455 406.8804,222.1465 C410.5704,253.4655 410.2804,271.3665 410.9004,302.8665 L411.326326,323.896833 C411.602622,337.9175 411.8404,351.9395 411.9004,365.9655 C413.3204,365.4365 414.7204,366.0855 415.2404,367.4465 C415.3704,367.7765 414.9204,367.9565 414.7004,367.7665 C412.2004,365.5855 413.9804,370.5555 414.8404,371.5665 C416.0304,372.9565 418.0104,374.2665 419.4004,375.4565 L423.1754,378.724875 L423.1754,378.724875 L426.9504,381.9865 C431.827067,386.194 436.544081,390.409903 441.093739,394.94231 L442.3304,396.1865 C450.6204,404.6065 461.0104,412.7555 466.1704,423.6465 C471.1004,434.0455 469.5804,445.8355 461.3904,454.1255 C458.4104,457.1355 454.9304,459.4365 451.1504,461.1765 C457.8804,472.2565 458.8604,486.9065 451.8404,498.3055 C444.8104,509.7465 431.2904,515.7365 418.2704,514.8165 C417.8704,516.4465 417.2504,518.0365 416.4304,519.5455 C411.267451,529.033282 400.998,530.264902 391.25954,529.757148 L390.8804,529.7365 C368.9604,528.4755 347.8704,522.9865 328.6704,512.3165 C322.0104,512.7665 316.0704,507.2955 314.7704,501.2955 C311.2704,501.1665 307.7504,500.8755 304.1604,500.4655 C293.5104,499.2365 282.5904,496.9465 273.2004,491.5365 C271.7604,490.7065 272.4304,488.5165 274.0304,488.4755 C285.4704,488.2155 296.9204,489.0065 308.3404,487.7665 C318.8204,486.6355 329.9904,483.7465 339.7604,479.8165 C357.3204,472.7365 372.3804,460.7265 380.6904,444.0855 C391.4504,422.5455 390.4704,396.6765 391.6404,373.2765 C392.9364,347.3745 394.5321,321.4968 396.23796,295.62153 L397.065754,283.218403 C398.722544,259.042706 400.093787,246.109581 404.2904,221.0165 C391.6404,222.1465 339.091585,203.233069 322.7504,172.2955 C291.735266,238.110268 134.599319,211.174996 127.6304,312.4965 C127.571303,313.355714 126.2104,313.1165 126.1604,312.2955 L126.03077,309.986352 C125.967993,308.845296 125.911048,307.722407 125.872437,306.608185 L125.8404,305.4965 L123.3704,305.5265 C123.3704,305.8355 122.9304,305.9465 122.8204,305.6165 C120.4904,299.0055 109.3904,301.1355 104.5604,302.7065 C100.2104,304.1255 96.1104,306.3055 92.4304,308.9965 C85.0404,314.3965 79.3104,321.6665 77.4104,330.7555 C73.8004,348.0165 84.7904,365.5965 99.3804,373.9265 C108.5804,379.1765 118.6604,382.5665 127.4804,388.5165 C135.2704,393.7665 142.5304,399.9165 148.8204,406.9065 C173.7404,434.5965 188.4004,476.5965 176.6104,513.1465 C175.7104,515.9365 173.3304,519.1255 170.1804,519.5765 C164.9704,520.3265 159.7604,519.5665 156.8404,514.6065 C155.7004,512.6665 155.1604,510.4565 155.2804,508.2765 C153.2604,515.2155 146.7104,522.0765 140.6704,524.6565 C132.4404,528.1765 123.1704,527.1255 115.9104,522.5855 L114.993191,523.264072 C103.186561,531.954382 89.9974886,539.874981 74.8704,538.2765 C63.9104,537.1165 53.1504,531.5365 47.0904,522.7365 C39.0304,527.2665 30.4204,530.8755 21.5404,533.3355 L20.5953472,533.595096 C8.37803019,536.921531 -7.20580253,539.971032 -18.6096,533.2155 C-29.5596,526.7255 -33.1996,512.5555 -30.6296,500.7255 C-30.3196,499.3165 -29.9296,497.9465 -29.4496,496.6165 C-37.6896,497.0555 -45.9196,496.2665 -53.7396,493.8465 C-61.7296,491.3755 -69.3496,486.6255 -73.1796,478.9265 C-77.4996,470.2155 -76.3496,460.3165 -73.1296,451.4465 C-67.9796,437.2155 -59.6996,424.5555 -49.3896,413.5265 C-39.4750054,402.911365 -27.5155898,393.90558 -15.086418,386.398613 L-12.9910836,385.144734 C-1.80264379,378.471607 11.6900923,370.651838 24.9104,371.1665 C24.8704,370.9965 24.8404,370.8355 24.8204,370.6665 C22.8204,355.9365 23.0504,340.9165 22.5804,326.0665 C22.1504,312.4065 21.6604,298.7465 21.3404,285.0765 C20.8204,261.8355 20.9904,238.4965 24.0204,215.4165 C26.7104,194.9365 31.5504,174.9655 40.3804,156.2155 C49.6504,136.5165 63.6104,119.7065 80.8504,106.4865 C117.0304,78.7365 164.8204,64.5665 209.9304,62.1665 Z M87.0403,335.1361 C90.9803,327.7061 99.9503,325.3661 107.8203,326.7061 C118.8503,328.5861 126.3503,338.2271 132.7903,346.5171 C139.5503,355.2061 125.4503,363.3961 121.8203,354.9771 L120.960225,352.988001 C118.047077,346.311141 114.605755,339.270645 108.6603,334.9161 C102.3403,330.2961 93.4203,329.6161 87.8403,335.7561 C87.4403,336.2061 86.7703,335.6261 87.0403,335.1361 Z"
                      id="Ink" fill="#000"/>
            </g>
        </g>
        <g id="Face" transform="translate(491.000000, 669.000000) scale(1 1)" fill="#000">
            <g id="Face/Loving Grin 2" stroke="none" stroke-width="1" fill="none" fill-rule="evenodd">
                <path d="M95.3791194,211.1931 C111.306119,198.8272 196.032607,195.104153 204.438751,203.148627 C212.844896,211.1931 232.59961,234.449613 194.799805,249.1931 C157,263.936587 108.87189,263.062222 95.3791194,249.1931 C81.8863489,235.323978 79.4521196,223.559 95.3791194,211.1931 Z"
                      id="teeth" fill="#FFF"/>
                <path d="M167.9366,192.8326 C176.4346,192.5446 184.9936,191.8846 193.4456,193.1236 C207.4876,195.1806 221.7086,205.1576 221.663813,220.6746 C221.5886,246.7046 192.2546,256.5556 171.3476,259.9506 L169.026212,260.3252 C143.853379,264.356201 113.84608,268.00118 91.2606,253.7286 C80.6176,247.0026 73.8696,235.6376 76.9856,222.8736 C79.9536,210.7106 90.2196,201.9746 101.7426,198.1996 C115.1856,193.7946 129.0956,196.0566 142.7746,197.8696 C143.7716,198.0026 144.7656,198.1276 145.7596,198.2556 C148.9416,197.2396 152.0696,195.8706 155.2596,194.9306 C159.4616,193.6916 163.5476,192.9806 167.9366,192.8326 Z M164.844896,226.1931 L151.656663,227.921328 L151.656663,227.921328 C146.719773,228.568558 141.781787,229.191816 136.844896,229.795668 C137.477072,236.521376 137.585539,243.321281 137.362032,250.1931 C146.257419,250.000187 155.201013,248.849557 163.932056,247.380448 C164.509451,240.331697 164.851286,233.273813 164.844896,226.1931 Z M125.844896,231.1931 C113.86176,232.498058 101.868505,233.664427 89.8448961,234.656728 C92.5542834,239.890975 99.4997584,243.21047 104.819601,245.087526 C110.902794,247.233999 117.180478,248.525653 123.550349,249.1931 C124.656588,243.263688 125.372721,237.24447 125.844896,231.1931 Z M212.8419,221.1931 C203.783266,222.678998 194.447563,223.325088 185.407621,224.463176 L174.844896,225.792779 L174.844896,225.792779 C175.928986,232.219562 176.7481,238.694774 177.265956,245.1931 L178.911506,244.870918 C186.320768,243.386194 193.764899,241.398766 200.312201,237.634834 L200.866263,237.308147 C206.10101,234.146375 213.009628,227.861612 212.8419,221.1931 Z M126.844896,211.1931 C120.919766,211.725643 114.659039,211.8295 108.950531,213.085728 C100.608882,214.920902 90.5724134,219.52044 88.9943241,228.911762 C88.736173,230.449729 88.8237199,231.872791 89.1705404,233.1931 C101.52139,230.851899 113.890198,228.701838 126.290432,226.700934 C126.587867,221.527973 126.739391,216.346174 126.844896,211.1931 Z M158.919623,208.1931 L150.803641,208.899984 L150.803641,208.899984 C144.822168,209.42204 138.832981,209.590655 132.844896,210.034889 C134.28737,214.715021 135.327626,219.435146 136.039497,224.1931 C140.960878,223.433254 145.885566,222.689621 150.816865,221.967605 L164.844896,219.915048 L164.844896,219.915048 L164.825959,216.372543 C164.809143,213.993846 164.777309,211.586646 164.690621,209.18425 L164.106579,209.136693 L164.106579,209.136693 C162.352248,208.942137 160.628773,208.600585 158.919623,208.1931 Z M208.844896,213.772288 C203.237051,208.737383 192.736117,209.084912 186.029401,209.290658 C181.002091,209.444167 175.90276,209.969725 170.844896,209.962263 C171.792086,213.000476 172.691262,216.057877 173.428935,219.1931 L184.237596,217.616427 L184.237596,217.616427 C192.364007,216.432057 200.613727,214.799951 208.844896,213.772288 Z M170.814304,144.367155 C178.365682,148.9572 189.871664,159.660291 181.748119,171.039573 C172.185929,181.073062 158.418535,169.568982 151.634201,164.366134 C145.343449,160.333898 138.275437,170.704507 144.112,175.412823 C193.135736,211.708059 213.030606,145.567387 174.633685,138.970386 C170.406047,138.243425 168.835891,142.947174 170.814304,144.367155 Z M244.785835,118.774001 C242.202576,135.655796 215.663649,159.196325 212.062317,159.196325 C208.460985,159.196325 177.625371,129.24444 177.625371,115.920887 C177.625371,102.597334 190.94622,84.7128809 212.062317,107.230782 C224.071147,92.1948429 247.369093,101.892207 244.785835,118.774001 Z M126.884,103.7684 C133.128,112.8854 130.751,124.2274 124.395,132.5394 C118.770429,139.897 99.8496345,156.361101 96.8867018,156.78525 C93.2344248,157.308079 76.517,138.4024 72.65,135.2294 C68.783,132.0564 58.0621266,121.858033 60.608,112.4114 C63.057,103.3234 76.1615358,87.9555018 95.2962581,103.7684 C101.379566,88.6863818 121.244,95.5334 126.884,103.7684 Z M64.7094,74.4155 C74.5104,63.4325 95.2674,51.8435 106.7074,66.6855 C109.6284,70.4775 106.5094,76.6745 102.2444,77.6545 C96.9624,78.8695 91.6264,78.1305 86.4404,79.6375 C81.6884,81.0185 77.1364,83.7855 73.0634,86.5435 C68.4184,89.6875 64.1404,93.1975 60.2094,97.1965 C57.8714,99.5755 54.9254,105.2115 51.3194,105.3165 C47.7344,105.4215 52.5464,94.2105 52.9444,93.2405 C55.7714,86.3355 59.7424,79.9815 64.7094,74.4155 Z M183.3277,47.5561 C188.97145,44.92585 194.477388,46.0961625 200.159036,47.6504359 L202.6057,48.3301 C208.6597,50.0131 215.1227,52.0811 220.3167,55.7101 L220.724563,55.9989329 C227.25785,60.6861748 237.247308,70.7440588 232.4787,79.4821 C232.1597,80.0651 231.4837,80.1231 230.9397,79.8851 C224.7957,77.1941 220.2407,71.8201 213.7057,69.5721 L212.50015,69.1615409 C206.171147,67.0297024 198.341185,64.7882515 191.5287,64.9921 C186.738954,66.5489889 180.269819,65.2594389 179.022929,59.4287798 L178.9667,59.1431 L178.8587,58.5391 C178.1407,54.5551 179.2087,49.4761 183.3277,47.5561 Z"
                      id="Ink" fill="#000"/>
            </g>
        </g>
        <g id="Beard" transform="translate(454.999934, 820.999659) scale(1 1)" fill="#000">
            <g id="Beard/None" stroke="none" stroke-width="1" fill="none" fill-rule="evenodd" fill-opacity="0"/>
        </g>
        <g id="Mask" transform="translate(360.000000, 783.000000) scale(1 1)" fill="#000">
            <g id="Mask/None" stroke="none" stroke-width="1" fill="none" fill-rule="evenodd" fill-opacity="0"/>
        </g>
        <g id="Accessories" transform="translate(379.000000, 724.000000) scale(1 1)" fill="#000">
            <g id="Accessories/Glasses 2" stroke="none" stroke-width="1" fill="none" fill-rule="evenodd">
                <path d="M372.3111,95.4577 C360.1701,108.0027 339.9021,111.6027 323.7491,104.8747 C282.2731,87.5457 302.5741,33.4957 334.5611,18.9807 C338.5571,17.9847 343.8941,15.6217 348.7611,15.0857 C349.2011,14.8697 350.1591,15.4947 351.3201,14.9037 C386.5911,18.8417 394.6231,73.5937 372.3111,95.4577 M238.5331,98.6687 C224.9161,116.7297 199.6001,122.3017 178.9161,113.9057 C138.0541,97.8137 152.5471,49.8847 180.5041,31.0947 C239.5611,8.9037 263.9481,65.3677 238.5331,98.6687 M149.9531,58.6507 C149.9151,58.6327 149.8771,58.6237 149.8381,58.6057 C150.0541,58.5107 150.2701,58.4157 150.4851,58.3187 C150.4151,58.5017 150.3391,58.6827 150.2711,58.8657 C150.1651,58.7927 150.0721,58.7077 149.9531,58.6507 M400.4231,39.1277 C397.0891,39.1347 392.2731,39.6827 389.5131,41.9957 C382.7071,19.0427 357.5851,-2.2003 335.7371,13.2897 C318.5321,18.8227 305.7651,31.0937 298.5091,47.4077 C285.4261,39.6257 264.8541,42.9487 253.5091,53.2397 C246.0791,28.6887 227.7931,20.0917 206.0281,18.8227 C182.2721,14.9317 158.5941,38.0027 151.2061,56.5107 C145.0631,55.8117 135.8841,53.8567 130.1051,57.6477 C92.5981,47.8117 27.0231,42.3887 19.3981,47.8537 C13.9641,49.9387 10.9821,62.7647 18.5721,63.4567 C25.1861,62.5177 17.8001,54.0587 24.4671,53.1357 C59.9901,50.9337 94.4751,58.0877 129.6221,61.0897 C132.7601,65.3107 142.8991,66.7227 148.3081,65.0267 C139.7891,96.4227 158.1791,117.7827 185.7341,124.1807 C228.4011,133.9817 265.5221,95.8137 254.3651,56.1137 C267.2901,49.6837 282.1571,49.9597 296.2371,53.3467 C272.7091,139.9367 412.1661,136.0517 390.3851,44.9627 C404.8801,52.1727 408.0281,40.5827 400.4231,39.1277"
                      id="Ink" fill="#000"/>
            </g>
        </g>
    </g>
</svg>