<svg viewBox="376.1081081081081 517.3875 402.97297297297297 479.0625" xmlns="http://www.w3.org/2000/svg"
      width="402.97297297297297px" height="479.0625px">
    <g id="Master/Character/Avatar" stroke="none" stroke-width="1" fill="none" fill-rule="evenodd">
        <g id="Head" transform="translate(332.000000, 483.000000) scale(0.9978902953586498 1)">
            <g id="Head/Short Top" stroke="none" stroke-width="1" fill="none" fill-rule="evenodd">
                <path d="M242.041161,75.2596156 C298.821805,75.2596156 372.115238,110.877442 378.365264,147.356837 C385.730757,190.346849 425.171562,355.304424 416.265335,408.203572 C407.359108,461.10272 359.365264,499.183765 282.566771,499.183765 C205.768277,499.183765 148.446655,457.302629 135.285147,442.922462 C126.510808,433.335685 113.993271,411.428601 97.7325351,377.201211 C70.3194918,373.555491 56.5470645,360.55971 56.4152532,338.213866 C56.2871511,315.868022 65.1995229,300.630067 83.1523686,292.5 C76.7512999,204.313833 81.6113554,148.741029 97.7325351,125.781589 C121.914305,91.3424282 185.260516,75.2596156 242.041161,75.2596156 Z"
                      id="Skin" fill="#ae5d29"/>
                <path d="M374.8904,141.4707 C374.8494,140.7017 375.9694,140.6117 376.1794,141.2917 C388.4294,181.7617 395.9804,213.3007 403.9294,254.7917 L406.276866,266.997009 C412.550326,299.550095 418.8884,332.150589 424.2404,364.8617 L424.554568,366.814687 C427.23555,383.747064 428.781141,400.844293 425.4204,417.8117 C422.2804,433.6717 413.7004,448.2117 402.5604,459.7917 C381.0304,482.1727 351.1094,496.1517 321.0104,502.4017 C305.7904,505.5617 290.0904,506.7817 274.5804,505.6817 C266.8494,505.1407 259.1304,504.0507 251.5604,502.4417 L250.724678,502.263016 C243.094277,500.615682 236.322032,498.650612 232.2694,491.4707 C231.2504,489.6617 231.6604,486.5617 233.8004,485.6317 C237.8404,483.8907 240.8104,483.1617 245.2194,483.6617 C249.4294,484.1407 253.5404,485.4117 257.7004,486.2017 C265.6504,487.7117 273.7304,488.4707 281.8204,488.6517 C297.7104,489.0017 313.6404,487.0117 328.8304,482.2717 C354.9294,474.1217 381.4504,458.5317 396.7004,435.2117 C414.6392,407.7788 407.496261,374.484902 402.742688,344.188836 L402.5994,343.2717 C397.7869,312.30545 393.028759,281.3392 388.410058,250.352852 L386.4394,237.0717 C381.2604,201.9817 376.3704,176.9317 374.8904,141.4707 Z M109.9002,55.5816 C122.926662,46.9957538 139.113587,44.8859503 154.413673,45.0044304 L156.329603,45.0285863 C175.920941,45.3271956 274.537721,47.674017 307.55555,48.3961621 L315.4102,48.5616 C325.806354,48.7577538 346.77388,48.9625649 357.576625,49.1599951 L358.2002,49.1716 C363.5002,49.2716 368.8002,49.3116 374.1002,49.4816 L374.877076,49.5095821 C378.847271,49.6790784 382.150806,50.2731455 385.2602,53.0716 C386.84145,54.4899333 387.458377,56.6530913 387.313413,58.713503 L387.2902,58.9816 L395.1602,59.6716 C400.50401,60.143981 403.329704,64.9368668 401.206794,69.7868945 L401.1002,70.0216 C397.3302,78.0616 394.4502,101.4616 392.4302,110.1116 C391.3702,114.6616 390.5192,119.2816 390.0192,123.9316 C389.6202,127.5926 389.5802,131.2616 387.5402,134.4816 C383.1892,141.3516 370.9502,141.2916 370.7302,131.5616 C370.7202,131.2516 370.7302,130.9516 370.7602,130.6616 C339.9602,129.3116 297.9102,129.4416 267.1502,131.2816 C238.4202,133.0016 209.8202,136.9016 181.6702,142.8716 C174.5402,144.3816 167.4302,146.0316 160.3702,147.8216 C154.5802,149.2816 147.4702,150.1516 142.2902,153.2816 C136.4902,156.8016 136.6002,163.1116 137.2302,169.1216 C137.9064,175.4916 139.033988,172.20958 140.631788,178.014673 L140.7302,178.3816 C142.3802,184.6816 144.4202,190.9116 147.1202,196.8316 C148.6602,200.2116 151.1412,203.4616 150.2002,207.3516 C149.6702,209.5416 147.9392,211.8816 146.3502,213.4116 C139.1092,220.3616 126.8702,215.9316 121.9502,225.4516 C116.801162,235.406408 116.673284,248.891419 116.236302,259.906545 L116.2102,260.5516 C115.8912,268.1416 115.9802,275.7516 116.4802,283.3216 C116.9302,290.2206 118.7692,297.0516 116.4102,303.6816 C114.6892,308.5016 109.0702,308.9516 106.1302,305.0316 C105.7927,304.5816 105.483325,304.12035 105.193638,303.656287 L104.9102,303.1916 L104.8912,303.2016 C105.1702,303.6416 105.4302,304.0926 105.6802,304.5516 C105.9502,305.0616 105.2802,305.6216 104.8702,305.1816 C97.9502,297.6516 87.8402,299.1516 80.0102,304.4216 C72.0802,309.7816 68.9502,319.9616 68.5402,329.0926 C68.0802,339.2206 68.9802,351.0926 73.2002,360.4516 C74.9802,364.4116 77.5192,368.0516 81.7302,369.5616 C83.6412,370.2416 85.4602,370.1516 87.4502,370.3116 C89.5192,370.4706 92.0102,371.5116 94.0192,371.3716 C96.6311565,371.18573 98.9761116,374.167512 98.2342607,376.665804 L98.1802,376.8316 C98.1412,376.9516 98.1002,377.0716 98.0612,377.1816 C98.1602,377.2716 98.2602,377.3816 98.3302,377.5416 C105.9302,393.0716 116.3502,406.8916 127.8702,419.7116 C133.6412,426.1216 140.0402,432.0116 146.7302,437.4616 C150.0302,440.1516 153.5102,442.8426 157.1802,445.0116 C158.4002,445.7206 159.5192,446.2016 160.8912,446.5926 C161.5302,446.7716 162.2602,446.8616 162.8802,447.0716 L163.52404,447.29208 C163.5682,447.3064 163.6102,447.3196 163.6502,447.3316 C165.4902,447.5416 167.0402,448.7616 167.6502,450.6716 C169.2402,455.6516 166.3502,460.0516 161.4102,461.4216 C156.058135,462.918339 151.014222,460.290433 146.771833,457.273279 L146.4902,457.0716 C137.8402,450.8426 129.8702,443.8516 122.9702,435.6916 C109.3202,419.5816 100.7692,400.9316 96.8112,380.3016 C95.8302,382.4116 94.5102,384.2516 92.2202,385.5316 C88.6602,387.5316 84.4102,387.5316 80.5102,386.8616 C72.6602,385.5316 65.9702,380.7416 61.5002,374.2616 C56.8592,367.5416 55.1302,359.3816 54.0802,351.4316 C53.0402,343.4706 52.5302,335.4816 53.5702,327.5016 C55.0612,316.0416 59.8702,304.7116 69.2202,298.4316 C62.2202,283.1816 60.9902,266.0816 61.4902,249.3816 C62.1002,228.8216 65.6502,208.0316 68.3802,187.6616 L76.1412,129.7516 L76.1412,129.7516 L76.4587208,127.417033 C78.331566,113.793594 80.6115514,100.098086 85.7102,87.2616 C90.7402,74.6116 98.3802,63.1716 109.9002,55.5816 Z M77.2404,329.5414 C90.0604,323.3214 103.9104,329.0514 110.8104,341.1214 C116.8098,351.6154 98.9721879,358.551637 95.9959987,347.734637 L95.9104,347.4014 C93.9504,339.2114 85.9694,332.1314 77.6404,331.0314 C76.9504,330.9324 76.4394,329.9324 77.2404,329.5414 Z"
                      id="Ink" fill="#000"/>
            </g>
        </g>
        <g id="Face" transform="translate(491.000000, 669.000000) scale(1 1)" fill="#000">
            <g id="Face/Smile" stroke="none" stroke-width="1" fill="none" fill-rule="evenodd">
                <path d="M146.586567,240.926554 C139.864291,238.184203 133.866322,233.609781 129.481228,227.766254 C127.956691,225.734803 127.561405,223.589624 127.881219,221.627583 C128.240828,219.421406 129.546036,217.4219 131.326046,216.080693 C133.111571,214.735331 135.345035,214.071832 137.504329,214.410065 C139.380629,214.703969 141.248396,215.731287 142.726594,217.861908 L143.035427,218.287981 C145.642441,221.814933 149.039621,224.708755 152.91047,226.573991 C156.641339,228.371775 160.813939,229.21087 165.131898,228.722919 C173.355732,227.793938 179.024012,223.346401 185.048774,217.30672 C185.795561,216.544195 186.542826,215.757766 187.293714,214.958678 C187.767915,214.234308 188.425986,213.768756 189.156624,213.524488 C189.967867,213.253272 190.885573,213.268617 191.726122,213.56195 C192.536835,213.844871 193.261572,214.380994 193.747527,215.094538 C194.209389,215.772704 194.47125,216.610486 194.386283,217.574143 C193.834826,223.833283 190.562474,229.419299 185.914235,233.805502 C180.751772,238.67694 173.908551,242.047034 167.465957,243.229031 C160.36811,244.531047 153.135593,243.598228 146.586567,240.926554 L146.586567,240.926554 Z M170.814304,144.367155 C178.365682,148.9572 189.871664,159.660291 181.748119,171.039573 C172.185929,181.073062 158.418535,169.568982 151.634201,164.366134 C145.343449,160.333898 138.275437,170.704507 144.112,175.412823 C193.135736,211.708059 213.030606,145.567387 174.633685,138.970386 C170.406047,138.243425 168.835891,142.947174 170.814304,144.367155 Z M82.9633,102.1464 C83.7976284,91.7901242 99.5703,89.4384 101.1393,99.6864 C102.5443,108.8664 100.8903,117.2994 96.7553,125.5644 C92.8043,133.4604 82.8737826,129.776544 82.1227826,122.586544 C81.1160984,112.948648 82.4443,108.588596 82.9633,102.1464 Z M203.027,97.5615 C205.226,94.6815 208.401,92.7155 212.205,93.8265 C224.09,97.2995 220.587,114.1725 216.413,122.3855 C214.145,126.8455 206.814,127.9765 203.501,124.0495 C198.101,117.6455 195.515,104.8565 202.38,98.5485 C202.566,98.2225 202.773,97.8935 203.027,97.5615 Z M96.5879,56.8305 L98.465271,56.501905 C104.27307,55.49746 111.4944,54.5323 115.6029,59.2015 C117.7819,61.6775 118.5319,66.2795 115.6029,68.6495 C110.4509,72.8195 104.7549,71.2035 98.5809,71.5565 C93.4929,71.8485 88.6029,72.6905 83.7019,74.0915 C72.9499,77.1645 64.1889,82.7745 55.0059,88.9345 C53.8009,89.7425 52.5709,88.2015 53.1459,87.0745 C58.4469,76.6915 68.7199,68.1625 79.0099,62.9635 C84.5019,60.1885 90.5119,57.8865 96.5879,56.8305 Z M192.192876,52.1793876 L193.629806,52.4734684 C209.267042,55.742077 229.583473,62.2713911 236.988459,77.6308459 C237.270623,79.8027272 236.97249,80.2682047 236.730054,80.5723213 L236.649336,80.6735209 C236.449568,80.9332186 236.290169,81.2912104 235.348782,81.5868073 C235.087547,81.5245653 234.823712,81.4586426 234.557082,81.3887687 C231.162766,80.499243 228.477205,79.2737961 225.877298,78.0022488 L223.058339,76.6134493 C219.787784,75.0098309 216.488352,73.4645766 212.991711,72.3238115 C205.52958,69.8898666 197.854137,68.1753043 190.059777,67.259767 C188.37041,67.0615005 186.743655,66.4913394 185.460262,65.5141761 C184.242065,64.5866523 183.311441,63.3024737 182.887128,61.5955207 C182.33722,59.3864508 182.495251,57.7140037 183.680513,55.7210991 C184.571756,54.2244705 185.846982,53.1871113 187.311265,52.5914244 C188.804038,51.9841473 190.503545,51.840982 192.192876,52.1793876 Z"
                      id="Ink" fill="#000"/>
            </g>
        </g>
        <g id="Beard" transform="translate(454.999934, 820.999659) scale(1 1)" fill="#000">
            <g id="Beard/None" stroke="none" stroke-width="1" fill="none" fill-rule="evenodd" fill-opacity="0"/>
        </g>
        <g id="Mask" transform="translate(360.000000, 783.000000) scale(1 1)" fill="#000">
            <g id="Mask/None" stroke="none" stroke-width="1" fill="none" fill-rule="evenodd" fill-opacity="0"/>
        </g>
        <g id="Accessories" transform="translate(379.000000, 724.000000) scale(1 1)" fill="#000">
            <g id="Accessories/None" stroke="none" stroke-width="1" fill="none" fill-rule="evenodd" fill-opacity="0"/>
        </g>
    </g>
</svg>