<svg viewBox="222.59459459459458 517.3875 575.6756756756755 517.3875" xmlns="http://www.w3.org/2000/svg" overflow="visible" xmlns:xlink="http://www.w3.org/1999/xlink" width="575.6756756756755px" height="517.3875px"><g id="Master/Character/Avatar" stroke="none" stroke-width="1" fill="none" fill-rule="evenodd"><g id="Head" transform="translate(332.000000, 483.000000) scale(0.9978902953586498 1)"><g id="Head/Medium Bangs" stroke="none" stroke-width="1" fill="none" fill-rule="evenodd"><path d="M297.60207,145.1631 C182.512269,140.9631 72.5396269,218.3121 35.5126119,327.6411 C32.8221984,336.2171 41.1949165,344.2281 49.6432527,342.7781 C41.0028862,386.2841 59.8865246,444.8441 109.075124,451.0161 C119.150245,452.2871 129.2781,451.5551 139.367151,452.4801 C148.359738,453.3041 197.315514,480.8441 215.647936,487.2961 C254.243032,500.7781 351.364433,498.3091 389.999328,487.2961 C391.406223,490.4961 421.410841,367.4501 428.243337,329.3001 C430.734983,312.770703 407.96731,300.533226 409.646189,283.50001 C411.802769,261.620212 437.395394,234.943114 429.554715,214.1131 C408.887085,161.0971 348.905988,146.3041 297.60207,145.1631 Z" id="Skin" fill="#da7de5"/><path d="M240.4447,48.7877 C245.6147,49.2177 250.8147,49.9477 255.9247,50.9077 C271.4547,48.3677 287.5247,51.1877 302.5847,56.0777 C337.8547,67.5277 371.8047,87.4077 398.3847,113.3577 C412.0647,126.7177 423.2547,142.1077 430.1447,160.0077 C433.6447,169.0877 435.6147,178.7777 436.1847,188.4877 L436.248051,189.664413 C436.407996,192.886021 436.480589,196.749033 436.0957,200.5757 C437.3267,208.3007 438.4237,216.0887 438.5067,223.9017 C438.5457,227.5207 438.3107,231.1337 437.8707,234.7227 L438.0217,235.0637 L438.0217,235.0637 C437.3837,239.3487 436.6217,243.6157 435.7537,247.8607 L435.5367,248.1417 C435.4177,249.0047 435.2807,249.8657 435.1517,250.7267 C434.6797,252.9087 434.1867,255.0857 433.6637,257.2547 C432.5317,261.9517 431.2787,266.6177 429.9287,271.2557 C429.6927,272.0687 429.9197,272.7097 430.3627,273.1307 C429.3787,276.6607 428.3037,280.1647 427.1117,283.6307 C427.6967,286.6637 428.2877,289.6957 428.9147,292.7177 C432.1847,308.4377 434.9547,324.2577 438.6747,339.8877 C446.2147,371.6077 457.6747,402.8177 460.8247,435.4277 C463.2747,460.7177 459.2047,488.3677 443.4847,509.0277 C429.9347,526.8277 409.5547,537.3377 387.5447,540.1377 C377.0147,541.4877 366.2147,540.8677 355.9147,538.2077 L354.792469,537.911761 C349.632679,536.522837 343.069528,534.34839 338.2747,530.8477 C333.0747,529.0177 328.1647,525.6377 325.2047,522.3377 C321.1647,517.8277 316.7547,510.1177 317.8547,503.7077 C311.8447,504.1977 305.7947,504.3377 299.8447,504.3177 C285.1847,504.2877 270.3947,503.1277 256.2947,498.8677 C243.7147,495.0677 229.0547,488.7177 221.6147,477.2577 C221.2647,476.7177 221.8447,475.9377 222.4547,476.1477 C228.4647,478.2577 234.0847,481.1077 240.2847,482.7177 C246.3847,484.2977 252.4847,485.7877 258.7747,486.4377 C271.0723,487.7049 283.55422,487.534404 295.893108,486.925964 L300.128567,486.706027 C313.331436,485.998556 326.976615,484.990679 339.3247,480.0477 C344.1697,478.1097 348.6537,475.404575 352.742405,472.189537 L353.3847,471.6777 C355.5747,469.8977 357.8347,468.3977 360.1347,466.9777 C360.4647,466.5577 360.7947,466.1377 361.1247,465.7077 C366.3547,458.9977 371.9747,452.5277 376.6847,445.4377 C386.0447,431.3677 389.6547,416.7477 390.1447,399.9677 C390.6577,382.2557 390.7171,364.5194 390.92797,346.80254 L391.0047,340.8977 C391.2747,320.6377 391.3147,300.3077 392.8747,280.0977 C393.593367,270.708367 394.616922,261.362589 396.189278,252.084758 L396.5347,250.0977 L399.0747,235.7877 C399.6857,232.3407 400.0427,228.7887 400.8237,225.3567 C399.9457,223.9167 398.9307,222.5307 397.7537,221.2107 C396.6687,219.9937 395.5667,218.8127 394.4667,217.6397 L393.673969,216.939921 C391.861837,215.322794 390.305187,213.779551 388.845958,211.555076 L388.4937,211.0047 L388.4937,211.0047 C386.9267,209.1137 385.4487,207.1357 384.1427,204.9627 L383.9017,204.5407 L383.9017,204.5407 C383.5757,204.1317 383.2517,203.7217 382.9147,203.3177 C381.8677,202.0587 380.7697,200.8697 379.6347,199.7307 C375.6537,207.4207 370.0227,214.0817 362.0507,218.2457 C359.1677,219.7517 355.6507,218.4617 354.7057,215.2577 C352.3207,207.1697 348.6987,199.6487 343.9057,192.8377 C335.9027,206.1557 323.2127,216.5727 308.2577,221.6557 C304.5207,222.9257 301.2297,219.0057 302.1077,215.5047 C304.8057,204.7437 305.3427,193.8007 303.7577,182.9827 C298.1127,187.0167 292.2907,190.8157 286.3127,194.3377 C273.0097,204.6207 258.9147,213.8747 243.4107,220.5197 C239.8287,222.0557 234.4377,219.4747 236.0657,214.8737 C237.436271,210.9997 238.562828,207.061032 239.284437,203.016061 L239.4437,202.0807 C239.4487,202.0527 239.4507,202.0247 239.4547,201.9957 C203.54839,251.52738 116.473999,299.258616 109.790488,299.718287 L109.6087,299.7197 L109.6087,299.7197 C113.7827,303.7067 117.1517,308.6327 119.3557,314.2937 C121.670265,320.239363 112.231563,322.828208 109.790611,317.143124 L109.7127,316.9527 C105.9577,307.3067 96.6697,300.3927 86.5647,298.7577 C80.4567,299.8667 74.6837,302.8117 70.7447,307.2777 C62.9947,316.0677 62.9247,326.6677 68.2147,336.6677 L68.9908227,338.124743 C71.8547694,343.466936 74.8713667,348.821033 76.4847,354.6877 C78.4547,361.8877 76.9647,369.1877 78.2547,376.3777 L78.324799,376.758907 C78.9363716,379.955866 80.2570077,383.5927 84.0647,382.7177 C84.3587,382.6497 84.6427,382.5587 84.9257,382.4617 C85.7287,383.1017 86.6947,383.6307 87.8987,383.9817 C90.8467,384.8407 94.1037,384.4237 97.0377,383.7297 C99.8717,383.0597 102.6237,382.0087 105.2727,380.7787 C105.5657,381.5027 105.7467,382.2597 105.7647,382.9877 C105.8547,386.7077 104.3147,389.7677 101.9447,392.2577 C105.7247,397.0377 108.9547,402.2977 112.5947,407.1777 C117.8247,414.1777 123.1747,421.0277 128.8647,427.6577 C134.7847,434.5677 141.2347,441.0977 147.9247,447.2677 C152.6147,451.5877 160.3647,456.2077 163.3047,462.4777 C166.6847,463.5277 169.5547,466.1177 170.6047,470.3777 C172.5147,478.0977 173.0747,496.1877 171.5747,504.0377 C170.0847,511.8177 164.4047,516.6677 158.1247,520.7677 C156.3847,521.9077 154.4147,521.7877 152.8147,520.9377 C151.4047,522.3077 149.8147,523.5677 147.9947,524.6877 C141.2747,528.8377 133.4647,530.3477 125.7247,531.2177 C115.2747,534.5577 104.0047,535.4377 92.8647,533.3577 C89.2247,533.7877 85.5847,534.1777 81.9347,534.4977 C44.5947,537.7477 6.6347,534.9777 -29.7853,526.0877 C-46.4953,522.0077 -62.2743,514.5927 -76.9753,505.0677 C-102.3133,488.6507 -113.0373,442.5707 -98.3353,398.5177 L-97.1711884,395.043982 C-90.5462167,375.364354 -83.4019667,355.7877 -73.8253,337.4277 L-72.6819341,335.243602 C-63.8792931,318.497908 -54.1961333,301.7702 -41.3353,287.7977 C-34.8953,280.8077 -27.4153,274.4577 -18.9653,270.0177 C-15.7573,268.3337 -12.0123,267.1657 -8.3523,265.8407 L-8.27755,264.924825 L-8.27755,264.924825 L-8.1983,264.0097 C-7.9573,261.0757 -7.6503,258.1467 -7.2543,255.2247 C-5.7763,244.2967 -3.6903,233.5297 -0.7273,222.8987 C2.2397,212.2537 5.8877,201.7877 10.2767,191.6437 C17.5987,174.7197 26.7947,158.6657 37.4097,143.6017 C38.1677,142.0457 38.9367,140.4957 39.7247,138.9577 C48.6747,121.4677 60.2647,104.7877 75.2147,91.8777 C92.3747,77.0577 113.0447,67.8577 134.6147,61.3977 C156.9847,54.7077 180.3247,50.1277 203.6347,48.5877 C215.9047,47.7777 228.1947,47.7677 240.4447,48.7877 Z M76.8448,329.7682 C88.0748,322.4182 103.3748,327.4572 109.0648,339.3982 C113.1748,348.0482 99.5848,352.9182 97.4348,344.2982 C95.2948,335.6582 86.1048,329.4682 77.2748,330.7882 C76.6648,330.8882 76.2848,330.1282 76.8448,329.7682 Z" id="Ink" fill="#000"/></g></g><g id="Face" transform="translate(491.000000, 669.000000) scale(1 1)" fill="#000"><g id="Face/Hero Mask" stroke="none" stroke-width="1" fill="none" fill-rule="evenodd"><g id="Group-26" transform="translate(12.000000, 44.000000)"><path d="M253.196473,53.4336895 C252.301769,48.6037149 250.778308,43.9184455 248.569729,39.5278803 C248.631372,39.6496444 248.694776,39.7731732 248.75818,39.8949372 C248.617282,39.6161152 248.476384,39.3408225 248.339008,39.0602357 C248.391845,39.1696469 248.444682,39.2755287 248.497519,39.3796458 C229.735166,3.75395089 184.117622,-9.67362553 162.466857,30.9761606 C162.74337,30.6673387 163.011076,30.3567521 163.285828,30.0461655 C136.09072,71.4335948 138.931579,13.3168418 78.5672803,9.46980317 C51.7931054,9.0392172 30.1458627,30.9585136 14.8513663,50.8148798 C6.07517155,59.3542466 5.03780877,74.8624003 6.61058459,89.544676 C10.1524124,122.576267 38.1435951,140.279703 71.2071121,142.752043 C101.068718,144.984384 115.005308,132.151511 141.869306,103.928718 C146.68274,98.8728622 156.802751,91.5970182 168.321176,93.2505389 C178.833941,94.7611192 179.804377,98.7669804 187.335384,108.813398 C230.370969,166.218979 259.262139,96.8346377 253.196473,53.4336895" id="Fill-1" fill="#E86BBB"/><g id="Group-5" fill="#E86BBB"><path d="M77.107119,14.6444135 C57.9270238,14.6444135 38.6923095,27.5113344 18.3264524,53.9602995 C18.1714048,54.1580619 18.0040238,54.3469957 17.8243095,54.5218036 C11.6893571,60.493524 9.38302381,72.3857585 11.1519762,88.9095194 C14.6634524,121.651569 44.325119,135.443736 70.9122619,137.431955 C98.7292143,139.517289 111.390262,127.524408 137.381881,100.211998 C144.152881,93.0960803 155.858976,86.139079 168.419595,87.9401301 C179.426214,89.5222299 182.719214,94.1466934 187.705405,101.147838 C188.646262,102.470375 189.692833,103.941233 190.917357,105.574539 C199.304024,116.762245 211.813548,129.060599 223.798024,124.095348 C238.051833,118.197789 251.718929,85.7205995 247.358214,54.1951424 C246.531881,49.7808015 245.141738,45.6171951 243.230071,41.813799 L243.22831,41.8102675 C243.212452,41.78025 243.196595,41.7484667 243.1825,41.7184492 C233.569548,23.488987 215.872976,11.2188849 199.138405,11.1800387 L199.053833,11.1800387 C186.235976,11.1800387 175.484833,18.0081413 167.817024,30.9774749 C167.688405,31.6307974 167.432929,32.2682282 167.047071,32.8544527 C159.629452,44.144571 153.728833,49.2634407 147.313738,49.971501 C139.741071,50.8208202 133.98669,45.2463905 127.342548,38.799687 C117.583357,29.3353401 104.222833,16.3783666 77.6709286,14.647945 C77.4841667,14.6444135 77.293881,14.6444135 77.107119,14.6444135 M76.8516429,148.257684 C74.6897857,148.257684 72.4504048,148.171163 70.1264524,147.996355 C30.783119,145.052873 4.15897619,122.846972 0.642214286,90.0413564 C-1.49497619,70.0938326 1.71169048,55.6836582 10.1776429,47.2010606 C32.8885952,17.8033159 55.0656905,3.65093888 77.9651667,4.05705824 C78.0497381,4.05705824 78.1325476,4.06058971 78.2153571,4.06588692 C108.735071,6.0117284 124.356119,21.1617464 134.693214,31.1875975 C139.420405,35.7714491 143.490405,39.7266986 146.156167,39.4406493 C147.937452,39.2446526 151.205786,37.2317131 156.842119,29.0722454 C156.92669,28.8374024 157.028881,28.606091 157.150452,28.378311 C166.696452,10.4525554 181.573976,0.585620541 199.053833,0.585620541 L199.16131,0.585620541 C219.830214,0.633295423 240.580167,14.573784 252.208738,36.1652083 C252.298595,36.3117645 252.381405,36.4600863 252.457167,36.6172369 L252.784881,37.2670278 C252.823643,37.3447202 252.862405,37.4259441 252.897643,37.5054022 C255.159929,42.1104427 256.800262,47.1110081 257.774595,52.3764339 C257.78869,52.4541263 257.801024,52.5318187 257.813357,52.6077454 C262.107119,83.3421526 250.198405,124.632132 227.834548,133.888122 C217.767024,138.057025 201.721357,137.629717 182.4655,111.936487 C181.182833,110.225489 180.086929,108.687532 179.100262,107.303195 C174.422405,100.73289 173.448071,99.3662102 166.920214,98.4286041 C155.858976,96.8376757 146.742881,105.726393 145.032071,107.525678 C120.060595,133.762755 104.872976,148.257684 76.8516429,148.257684" id="Fill-3"/></g><g id="Group-8" fill="#000"><path d="M77.107119,14.6444135 C57.9270238,14.6444135 38.6923095,27.5113344 18.3264524,53.9602995 C18.1714048,54.1580619 18.0040238,54.3469957 17.8243095,54.5218036 C11.6893571,60.493524 9.38302381,72.3857585 11.1519762,88.9095194 C14.6634524,121.651569 44.325119,135.443736 70.9122619,137.431955 C98.7292143,139.517289 111.390262,127.524408 137.381881,100.211998 C144.152881,93.0960803 155.858976,86.139079 168.419595,87.9401301 C179.426214,89.5222299 182.719214,94.1466934 187.705405,101.147838 C188.646262,102.470375 189.692833,103.941233 190.917357,105.574539 C199.304024,116.762245 211.813548,129.060599 223.798024,124.095348 C238.051833,118.197789 251.718929,85.7205995 247.358214,54.1951424 C246.531881,49.7808015 245.141738,45.6171951 243.230071,41.813799 L243.22831,41.8102675 C243.212452,41.78025 243.196595,41.7484667 243.1825,41.7184492 C233.569548,23.488987 215.872976,11.2188849 199.138405,11.1800387 L199.053833,11.1800387 C186.235976,11.1800387 175.484833,18.0081413 167.817024,30.9774749 C167.688405,31.6307974 167.432929,32.2682282 167.047071,32.8544527 C159.629452,44.144571 153.728833,49.2634407 147.313738,49.971501 C139.741071,50.8208202 133.98669,45.2463905 127.342548,38.799687 C117.583357,29.3353401 104.222833,16.3783666 77.6709286,14.647945 C77.4841667,14.6444135 77.293881,14.6444135 77.107119,14.6444135 M76.8516429,148.257684 C74.6897857,148.257684 72.4504048,148.171163 70.1264524,147.996355 C30.783119,145.052873 4.15897619,122.846972 0.642214286,90.0413564 C-1.49497619,70.0938326 1.71169048,55.6836582 10.1776429,47.2010606 C32.8885952,17.8033159 55.0656905,3.65093888 77.9651667,4.05705824 C78.0497381,4.05705824 78.1325476,4.06058971 78.2153571,4.06588692 C108.735071,6.0117284 124.356119,21.1617464 134.693214,31.1875975 C139.420405,35.7714491 143.490405,39.7266986 146.156167,39.4406493 C147.937452,39.2446526 151.205786,37.2317131 156.842119,29.0722454 C156.92669,28.8374024 157.028881,28.606091 157.150452,28.378311 C166.696452,10.4525554 181.573976,0.585620541 199.053833,0.585620541 L199.16131,0.585620541 C219.830214,0.633295423 240.580167,14.573784 252.208738,36.1652083 C252.298595,36.3117645 252.381405,36.4600863 252.457167,36.6172369 L252.784881,37.2670278 C252.823643,37.3447202 252.862405,37.4259441 252.897643,37.5054022 C255.159929,42.1104427 256.800262,47.1110081 257.774595,52.3764339 C257.78869,52.4541263 257.801024,52.5318187 257.813357,52.6077454 C262.107119,83.3421526 250.198405,124.632132 227.834548,133.888122 C217.767024,138.057025 201.721357,137.629717 182.4655,111.936487 C181.182833,110.225489 180.086929,108.687532 179.100262,107.303195 C174.422405,100.73289 173.448071,99.3662102 166.920214,98.4286041 C155.858976,96.8376757 146.742881,105.726393 145.032071,107.525678 C120.060595,133.762755 104.872976,148.257684 76.8516429,148.257684" id="Fill-6"/></g><path d="M149.269816,93.3456227 C132.926142,98.978101 147.139191,103.735202 147.139191,103.735202 C155.232017,92.9512608 200.049725,101.567096 165.279692,124.960008 C149.637349,135.483988 143.426575,121.874081 141.121949,128.097218 C139.974962,135.284155 147.139191,139.234848 153.357066,139.800748 C169.798393,141.751336 187.045807,129.152977 187,111.983202 C187.100849,91.5842574 165.61349,87.7131443 149.269816,93.3456227" id="Fill-9" fill="#000"/><g id="Group-13" transform="translate(77.000000, 165.000000)" fill="#000"><path d="M124.918852,0.247265735 C93.5285882,20.2455315 56.0955711,10.0770615 21.4470464,7.5832065 C21.7623051,7.6025115 22.08637,7.6235715 22.4016288,7.6446315 C15.6719987,7.6060215 8.82084424,5.0998815 2.18279769,5.9510565 C-3.22239331,9.3943665 3.78374869,14.8102965 7.26040136,16.5775815 C21.6918562,23.6449665 38.270241,25.9633215 54.1864062,26.9162865 C75.7349601,27.3480165 98.0848701,26.4389265 117.604496,16.3582065 C123.490501,14.7067515 138.712744,0.2192265 124.918852,0.247265735" id="Fill-11"/></g><path d="M58.108,151.031 C58.036,151.013 57.964,150.985 57.892,150.969 C57.962,150.991 58.038,151.011 58.108,151.031" id="Fill-14" fill="#000"/><path d="M57.294,151.078 C57.098,151.024 56.902,150.972 56.706,150.922 C56.902,150.974 57.098,151.026 57.294,151.078" id="Fill-16" fill="#000"/><path d="M55.144731,53.6574974 C71.7256365,51.8857074 90.5509669,53.7078961 105.461791,58.5932458 L106.286103,58.8678022 L106.586,58.971 L106.618718,58.9757118 C106.756509,58.9978123 106.894451,59.0271756 107.035055,59.0648249 L107.248272,59.1276414 L107.467363,59.2036545 L107.652004,59.2774152 L109.328929,59.9887966 L109.969273,60.2689985 C110.771139,60.6256237 111.381138,60.9220959 111.989278,61.2514788 L112.217614,61.3767219 L112.653741,61.6246356 C123.759338,68.2685526 127.030481,78.7984892 121.156714,88.1945288 C116.173725,96.1656255 105.948818,100.859938 95.6577715,99.8620083 L95.2103087,99.8150259 L94.898,99.776 L94.6835989,99.7971183 C87.8289442,100.30134 72.3576335,93.4242691 59.6783556,84.5477615 L59.215746,84.2221289 L58.7612121,83.8986777 L57.875626,83.2578929 L56.9838003,82.5976502 C49.8003785,77.2154477 45.2509293,72.2196486 43.6565771,67.7181543 C41.184986,60.7398633 45.5028209,55.5130762 54.8080181,53.7080515 L54.9758364,53.6791901 L55.144731,53.6574974 Z" id="Stroke-20" fill="#000" fill-rule="nonzero"/><path d="M105.917943,67.9912925 C104.832992,67.3708648 103.668557,66.9132994 102.518694,66.4311754 C102.641894,66.4919256 102.761119,66.5526758 102.880345,66.613426 C91.1525414,62.4281241 76.3818413,61.2144124 64.4566537,62.4720711 C41.6501629,66.838331 85.9582889,92.4813837 94.0841611,90.8075215 C108.778027,92.9208534 121.397371,77.1309682 105.917943,67.9912925" id="Fill-18" fill="#FFF"/><path d="M222.016868,52.1059786 L222.730623,52.1141606 C229.343374,52.249497 233.770623,53.9796077 235.948883,57.7255341 C236.201272,58.1595647 236.357326,58.6428163 236.406452,59.1424857 C237.191212,67.1244119 233.929069,73.4794482 224.682163,82.9635509 L224.251126,83.4035179 L221.005286,86.6352805 L218.923973,88.7120155 L218.306511,89.3428069 C217.913011,89.7480208 217.554323,90.1241624 217.221624,90.4805628 L216.740963,91.0015239 L216.276613,91.5178021 C216.153901,91.656125 216.02042,91.7845059 215.877423,91.9017391 C207.605202,98.6835838 199.299528,101.011436 192.160859,98.5562933 C185.887649,96.3988007 181.323309,90.6902087 179.930406,83.4756235 C178.534989,76.2480123 180.536536,68.7345893 185.448932,63.1382398 C189.189989,58.8763149 197.804345,55.5659016 211.292,53.207 L212.304012,53.0173714 C212.95112,52.9019066 213.627806,52.7928473 214.325211,52.6924007 C216.492443,52.3802564 218.580016,52.1881911 220.556154,52.1270841 L221.291921,52.110329 L222.016868,52.1059786 Z" id="Stroke-24" fill="#000" fill-rule="nonzero"/><path d="M219.365157,61.5454991 C216.932842,61.3698812 204.995599,63.3763471 203.161144,63.7761863 C180.493361,68.7168742 191.832779,101.524298 211.734946,84.8481755 C216.658582,79.1758573 225.395794,72.8820462 224.596737,64.5755541 C223.396506,62.4660351 221.486277,61.698648 219.365157,61.5454991 Z" id="Fill-22" fill="#FFF"/></g></g></g><g id="Beard" transform="translate(454.999934, 820.999659) scale(1 1)" fill="#000"><g id="Beard/None" stroke="none" stroke-width="1" fill="none" fill-rule="evenodd" fill-opacity="0"/></g><g id="Mask" transform="translate(360.000000, 783.000000) scale(1 1)" fill="#000"><g id="Mask/None" stroke="none" stroke-width="1" fill="none" fill-rule="evenodd" fill-opacity="0"/></g><g id="Accessories" transform="translate(379.000000, 724.000000) scale(1 1)" fill="#000"><g id="Accessories/None" stroke="none" stroke-width="1" fill="none" fill-rule="evenodd" fill-opacity="0"/></g></g></svg>