<svg viewBox="299.35135135135147 517.3875 460.54054054054023 498.22499999999957" xmlns="http://www.w3.org/2000/svg"
     width="460.54054054054023px"
     height="498.22499999999957px">
    <g id="Master/Character/Avatar" stroke="none" stroke-width="1" fill="none" fill-rule="evenodd">
        <g id="Head" transform="translate(332.000000, 483.000000) scale(0.9978902953586498 1)">
            <g id="Head/Beanie" stroke="none" stroke-width="1" fill="none" fill-rule="evenodd">
                <path d="M244.801076,58.7061513 C289.572611,58.7061513 343.290355,80.4107214 347.857576,80.8448128 L347.980873,80.851412 C350.383805,80.851412 359.773072,88.0046317 376.148674,102.311071 L358.412048,136.905077 L359.847401,138.275654 C366.716004,144.860995 372.579732,150.86334 377.20818,155.594994 C414.999829,194.229324 421.792237,345.918858 412.88601,398.818005 C403.979783,451.717153 387.483712,503.479944 310.685218,503.479944 C233.886725,503.479944 148.446655,457.302629 135.285147,442.922462 C126.510808,433.335685 116.654935,428.742788 105.717528,429.143771 C105.268005,428.576557 104.822108,428.011003 104.379837,427.447111 L102.770605,427.219146 C87.633459,425.026858 76.7873358,422.076066 70.2326472,418.367754 C57.4294952,411.124377 43.3572802,373.045104 43.3572802,364.656723 C43.3572802,356.352227 22.3445065,295.939883 21.924251,289.546864 L21.9178621,289.36978 C21.9178621,284.025444 -5.53321454,259.457893 -5.53321454,251.655721 C-5.53321454,243.853549 -11.0664291,244.32691 -5.53321454,216.833266 L-3.92565876,208.756436 C1.96255037,179.483802 13.4873849,131.012555 57.4294952,109.950337 C105.717528,86.8050433 199.577304,58.7061513 244.801076,58.7061513 Z"
                      id="Skin" fill="#ffdbb4"/>
                <path d="M244.793497,59 C289.565032,59 343.282776,80.70457 347.849997,81.1386614 L347.973294,81.1452607 C350.376226,81.1452607 359.765493,88.2984803 376.141095,102.60492 L372.160288,110.364039 C284.009622,112.095217 223.337123,119.259615 190.142792,131.857234 C151.660133,146.461831 127.502474,201.947011 117.669814,298.312773 C104.224511,304.680309 90.7792072,313.061256 77.3339036,323.455616 C63.8886,333.849976 60.4852098,339.218683 67.123733,339.561738 C66.5453697,361.837211 68.3278576,377.392951 72.4711966,386.228956 C76.6145355,395.064961 90.9559204,400.264905 115.495351,401.828787 L115.495351,401.828787 L121.729532,422.705783 L120.867295,432.381225 C116.069485,430.224255 111.017036,429.243053 105.709949,429.43762 C105.260426,428.870406 104.814529,428.304852 104.372258,427.74096 L102.763026,427.512994 C87.62588,425.320707 76.7797568,422.369915 70.2250682,418.661603 C57.4219162,411.418226 43.3497012,373.338952 43.3497012,364.950572 C43.3497012,356.646075 22.3369275,296.233732 21.9166721,289.840712 L21.9102831,289.663629 C21.9102831,284.319293 -5.54079354,259.751741 -5.54079354,251.949569 C-5.54079354,244.147397 -11.0740081,244.620759 -5.54079354,217.127114 L-3.93323776,209.050285 C1.95497137,179.777651 13.4798059,131.306403 57.4219162,110.244186 C105.709949,87.098892 199.569725,59 244.793497,59 Z"
                      id="hat" fill="#9DDADB"/>
                <path d="M49.9759,108.863 C74.05864,83.3012 210.780353,43.763174 279.951662,52.1442952 L282.0269,52.413 C287.5469,53.113 292.9869,54.173 298.3559,55.613 C315.7099,59.666 333.6359,65.803 347.9749,76.054 C359.9459,84.44 397.7089,98.135 386.5789,120.073 C390.7059,127.892 392.2459,137.552 389.4569,145.253 C389.1059,147.913 388.2859,150.363 387.2369,152.903 C396.0539,165.914 403.0349,180.628 408.6859,194.623 C418.5609,229.844 424.7059,266.498 425.6059,302.433 C428.5999,370.705 421.1139,452.256 361.6519,496.404 C325.7309,524.379 269.4629,525.319 229.0959,490.633 C226.8049,487.922 216.0319,480.606 219.6269,479.323 C220.6969,480.453 221.7969,481.553 222.9169,482.633 C222.8659,482.513 222.8559,482.393 222.8769,482.263 L221.823473,481.309028 C219.839749,479.473835 217.269834,476.812131 220.1969,477.333 C220.3259,477.483 220.4669,477.613 220.6059,477.763 C221.225837,478.134875 221.694181,478.457271 222.05859,478.741515 L222.246041,478.891534 L222.188128,478.831293 C220.502038,477.033357 219.491192,475.199546 222.012175,476.370731 L222.3459,476.533 C223.4669,477.713 224.6059,478.843 225.7659,479.943 C225.7469,479.813 225.7659,479.683 225.8369,479.543 L224.75535,478.498176 C223.699588,477.46362 223.860724,477.459206 224.3769,476.623 C222.1329,473.478 226.3219,475.346 226.6159,476.573 C229.2369,475.953 231.5379,480.873 233.2259,481.473 C307.2249,538.363 414.6119,487.884 412.8729,329.359 L412.846346,326.257389 C412.337744,275.567908 408.07202,223.46856 387.1059,177.583 C385.0669,173.163 382.7859,168.863 380.2769,164.703 C378.5469,161.583 376.6969,158.543 374.7069,155.583 C369.1359,155.133 363.6359,154.113 358.2169,152.533 C356.3559,152.063 354.5159,151.543 352.6769,150.933 C325.7969,152.399 299.5159,153.994 272.5609,155.506 L264.141372,156.030389 C241.307275,157.49837 217.69246,159.84959 199.2659,173.973 C181.1859,186.831 181.1039,212.186 165.6269,226.303 C143.5569,241.282 143.3959,254.789 139.1459,276.863 C139.4609,293.503 150.9989,317.68 129.8259,324.683 C133.3979,329.776 128.4189,327.329 128.0269,325.543 C127.9869,325.553 127.9469,325.563 127.9169,325.563 C131.0999,331.48 126.4209,327.754 126.0069,325.853 C125.7569,325.783 125.5069,325.603 125.2569,325.353 C128.4639,330.537 123.2799,326.907 123.5869,325.963 C117.3899,316.438 104.6359,314.959 95.6459,317.483 C95.5359,317.823 95.1369,317.853 94.8869,317.673 C56.6599,325.957 66.5229,405.093 105.6969,397.443 C107.3739,397.101 107.3339,397.906 107.6669,397.983 C106.7619,395.607 109.3129,396.574 109.2859,397.073 L109.441338,397.065453 C109.564505,397.054593 109.514122,397.041111 109.6059,397.073 C108.7309,392.214 113.6549,399.254 113.2659,399.543 C113.4169,399.453 113.5869,399.403 113.7369,399.383 L113.567399,398.921749 C112.750208,396.744712 112.820264,397.649576 112.8259,396.403 C112.2119,394.862 112.1669,395.536 112.3109,394.532 C114.4689,392.86 115.1059,397.932 115.8259,398.303 C114.5919,396.583 115.5729,395.178 116.7369,396.112 C125.5599,414.67 136.9569,432.107 151.6859,445.843 C153.2969,447.113 154.9269,448.363 156.6159,449.543 C162.8809,455 172.4909,458.509 178.3559,463.343 C178.3559,463.423 178.3169,463.523 178.2569,463.623 L178.39115,463.74425 L178.39115,463.74425 L178.5269,463.873 L180.5669,464.853 C181.1669,465.363 181.7069,465.933 182.1859,466.563 C182.6969,467.153 183.1459,467.803 183.5269,468.493 C183.7169,469.333 183.2969,469.683 182.4969,469.323 C182.1459,469.203 181.7969,469.063 181.4469,468.933 C181.4669,468.963 181.4759,468.983 181.4969,469.003 C181.61165,469.176571 182.388451,470.977375 181.493354,470.684363 L181.3869,470.643 C180.8959,470.463 180.4069,470.263 179.9269,470.073 C180.4969,470.783 181.0159,471.553 181.4759,472.203 C181.9669,472.713 182.2659,473.313 182.3869,473.993 C182.3659,474.373 182.1569,474.533 181.7769,474.483 C181.1969,474.293 180.6269,474.093 180.0559,473.883 L180.218285,474.192775 C180.621712,474.986299 181.195061,476.317194 180.1769,475.873 C179.3059,475.603 178.4669,475.293 177.6269,474.953 C177.5559,475.093 177.4169,475.143 177.1369,475.013 C174.4669,474.063 171.8869,472.903 169.4169,471.533 C167.2469,469.953 165.0559,468.403 162.8769,466.833 C160.8259,465.603 158.8459,464.233 156.9569,462.693 C144.3109,454.525 133.2399,444.149 124.4569,432.593 C109.7679,445.314 80.3989,433.161 62.2319,423.203 C46.1629,414.303 39.8469,397.847 38.2139,380.105 C34.8189,356.219 15.2989,348.043 16.6569,295.633 C16.6269,295.643 16.5959,295.643 16.5559,295.643 C15.8459,295.433 15.1569,295.153 14.5069,294.793 C13.8369,294.473 13.2069,294.093 12.6159,293.633 L11.8859,292.623 L11.8859,292.623 C11.5069,292.413 11.1669,292.193 10.9069,291.973 L10.7720626,292.146894 C10.3452333,292.661965 10.63215,291.887 10.6569,291.733 L9.38875352,290.0084 C6.38188437,285.903078 3.083025,281.29675 0.3959,277.613 L0.311258601,277.762679 C0.250471429,277.875653 0.218328571,277.957286 0.2469,277.993 C-6.1481,268.805 -12.1621,257.707 -13.8331,246.963 C-15.8061,238.687 -15.0351,230.159 -13.3141,222.493 C-5.9351,195.648 18.2369,134.9 49.9759,108.863 Z M223.523686,480.116032 L223.122951,479.759136 L223.475308,480.200613 C223.659955,480.42876 223.84899,480.63382 224.1569,480.843 C224.1369,480.773 224.1369,480.703 224.1459,480.623 C223.941698,480.467121 223.732905,480.296655 223.523686,480.116032 Z M279.6459,65.633 C232.7379,61.6 186.6009,71.934 141.8389,84.443 L138.751029,85.3305184 C113.298885,92.5930675 86.385913,99.1281948 64.8769,114.673 C34.8259,137.69 19.3079,174.306 5.7659,208.113 C-6.0591,233.231 -0.0141,261.554 17.8059,279.093 C19.6599,261.664 22.8209,244.745 27.7609,227.962 C28.7919,225.34 28.0119,224.481 30.2339,224.139 C33.5899,269.367 17.0609,302.783 49.7709,356.385 C63.9639,381.677 47.5339,400.183 87.6139,413.492 L88.6985408,413.90645 C97.0486222,417.057302 106.167483,419.544417 114.3459,417.783 L113.613193,416.591163 C112.865939,415.363801 112.639181,414.768 113.7259,414.243 C113.6969,414.183 113.6569,414.123 113.6159,414.053 C112.7369,412.393 111.8869,410.713 111.0759,409.013 C110.7469,409.123 110.4169,409.203 110.0759,409.293 C110.2969,409.703 110.3259,410.113 109.7069,410.253 C107.5033,411.009 105.240464,411.312022 102.924085,411.170197 L102.4269,411.133 C99.8099,410.973 98.1609,410.496 96.6859,410.053 C96.1969,409.973 95.7069,409.893 95.2259,409.793 C90.4809,408.741 85.4579,406.065 82.2069,403.413 C45.1489,382.365 48.9789,310.716 94.6569,303.943 C95.5939,258.831 117.0509,182.723 152.6609,139.736 C184.8489,100.195 272.7229,83.057 333.8589,89.1 C334.7499,89.395 335.6409,89.693 336.5319,89.994 C345.9639,90.832 354.9529,95.034 364.3919,96.986 C357.6149,91.907 349.9269,88.524 342.0079,85.649 C326.2299,75.998 308.1419,70.776 290.6669,67.093 C287.0469,66.203 283.3769,65.713 279.6459,65.633 Z M92.5662,340.1829 C95.0222,338.8489 94.7412,340.1369 95.3062,339.7629 C112.9722,338.3219 132.0212,353.7889 141.8962,366.6829 C141.1162,367.4929 139.0062,365.0929 138.6362,364.7129 C138.5862,364.7629 138.5262,364.8029 138.4662,364.8229 L138.741174,365.210988 C142.74361,370.954718 134.809221,364.195942 134.0662,362.8029 C133.9362,362.8729 133.8062,362.9129 133.6562,362.8829 C134.2852,363.4999 136.2062,365.1089 136.5362,366.2529 L137.045494,366.676733 C141.847898,370.78921 141.449332,373.882812 135.9972,368.0429 C136.1262,368.3129 136.1762,368.5629 136.0862,368.7629 L136.27393,368.888003 C138.954977,370.761539 141.159882,375.984218 135.5562,370.6229 C136.1392,374.5389 130.0032,366.9699 129.8062,367.0229 C119.1882,358.6879 103.5552,350.5819 90.2362,349.4929 L89.77779,349.440232 C87.3337388,349.126208 86.1782,348.401043 87.0362,346.8029 C84.0262,346.0869 84.7312,344.6049 86.1562,344.6529 C84.0332,343.2569 85.9442,341.9219 87.1762,342.4429 C86.3292,340.0979 89.7262,341.6599 90.0362,341.3329 C91.7992,338.6139 92.2742,340.8819 92.5662,340.1829 Z M55.5363,194.8329 C64.0213,191.7249 89.0843,201.0289 87.0793,213.3509 C85.8853,216.1799 81.9513,217.8009 79.1863,216.2039 L75.5774719,213.780141 C69.2971698,209.574177 63.6330368,205.886111 56.8903,202.2179 C53.2203,200.3969 51.6403,196.5309 55.5363,194.8329 Z M103.8112,176.5217 L100.534261,174.389194 C82.8503248,162.815592 57.8511,145.27882 102.1862,163.4227 C107.2392,165.5897 113.9532,166.8717 116.7102,171.6837 C121.0412,180.5527 109.6432,181.1487 103.8112,176.5217 Z M105.7984,124.5927 C104.3794,119.2077 122.0364,125.5267 127.1764,127.1927 L127.959291,127.488387 C132.959307,129.351465 138.6908,131.0798 141.6814,135.3947 C145.1854,141.3567 138.0934,142.5917 133.7004,139.8987 C124.6934,134.0127 114.8184,129.5717 105.7984,124.5927 Z M150.6987,99.5078 C140.76009,88.65443 167.358628,99.0515882 171.342946,101.937672 L171.4567,102.0228 C174.4297,104.1158 173.8267,108.6238 171.0337,109.9478 C163.0867,110.0988 157.2387,103.4748 150.6987,99.5078 Z M195.9247,87.6166 C180.1247,76.2616 200.9377,81.6626 208.1667,86.1126 C213.0937,90.4576 208.0187,97.7926 195.9247,87.6166 Z"
                      id="Ink" fill="#000"/>
            </g>
        </g>
        <g id="Face" transform="translate(491.000000, 669.000000) scale(1 1)" fill="#000">
            <g id="Face/Dracula" stroke="none" stroke-width="1" fill="none" fill-rule="evenodd">
                <path d="M111.356433,252.418685 L100.7903,212.0821 L102.494368,212.345349 C119.255697,214.980164 127.636361,217.684872 127.636361,220.459471 L127.629295,220.648802 C127.407896,223.773814 121.983608,234.363775 111.356433,252.418685 Z M208.622476,220.799543 L204.8803,249.640803 L185.389762,228.277354 L208.622476,220.799543 Z"
                      id="teeth" fill="#FFF"/>
                <path d="M101.1623,210.6721 C108.414983,209.2721 117.438041,212.321832 124.671223,213.658183 L125.2103,213.7551 C133.9813,215.2871 142.7333,217.1391 151.6013,218.0431 C160.0673,218.9081 168.7133,219.0631 177.1803,218.0901 C181.2463,217.6221 185.2773,216.8261 189.2273,215.7581 C190.9173,215.3011 192.5933,214.7911 194.2493,214.2251 L194.436545,214.153427 C195.65316,213.651157 198.943084,211.75837 198.9043,212.8131 C199.8293,211.7461 201.1033,210.9891 202.5023,210.6211 C204.4763,210.1021 207.0103,210.5891 208.6623,211.9851 C210.8113,210.2831 214.0353,211.5041 215.4763,213.5421 C217.947614,217.0373 217.143438,221.13362 216.824121,225.188445 L216.7973,225.5461 C216.52605,229.3681 216.110862,233.164069 215.598632,236.957454 L215.3733,238.5831 C214.5763,244.1941 214.3573,253.4481 207.5583,255.2871 C202.1808,256.742933 197.260244,251.209878 193.79374,246.819299 L191.8963,244.3871 C189.6493,241.5361 187.6093,238.6011 185.9653,235.3601 C185.2163,233.8851 184.4923,232.3741 183.8653,230.8431 C183.7863,230.6501 183.7283,230.4771 183.6683,230.3031 C173.6963,231.6451 163.4883,231.4531 153.4903,230.1351 C147.1603,229.3001 140.9243,228.0941 134.7823,226.4741 L132.01131,231.482887 C128.768572,237.323989 125.479522,243.147211 122.0223,248.8561 L121.754037,249.290988 C118.51779,254.43977 113.098834,259.59647 106.6923,255.7401 C100.9593,252.2881 100.7153,244.4361 100.1113,238.5771 C99.707925,234.663225 99.3811125,230.722553 99.2239816,226.787241 L99.1673,225.1011 C99.0643,221.2851 98.4433,216.8621 99.9103,213.2931 C100.1233,212.7731 100.8703,212.3731 101.3203,212.9201 C104.3853,216.6461 105.3123,222.4211 106.6363,226.9941 C108.1103,232.0821 110.2453,237.6391 111.0113,242.9171 L111.2253,242.5451 L111.2253,242.5451 C111.9798,241.1116 112.74955,239.68585 113.52305,238.2621 L115.8433,233.9911 C117.9243,230.1351 120.0433,226.3031 122.1813,222.4801 C119.739967,221.562767 117.3213,220.577433 114.912263,219.575656 L109.445069,217.290086 C106.322106,215.970989 103.1378,214.4821 100.7903,212.0821 C100.3743,211.6571 100.5193,210.7951 101.1623,210.6721 Z"
                      id="Path" fill="#000"/>
                <path d="M204.8803,224.7601 C199.4933,226.9501 193.9213,228.5301 188.2483,229.5781 C188.6143,229.9531 188.9793,230.3281 189.3193,230.7221 C190.6543,232.2671 192.07055,233.750989 193.495133,235.218327 L194.3503,236.0971 C196.5323,238.3361 199.8103,242.0231 203.1553,244.1661 L203.33612,243.198698 C203.365722,243.031975 203.388925,242.887225 203.4013,242.7751 L203.757596,239.593989 C203.8153,239.063656 203.8713,238.5331 203.9243,238.0021 C204.2123,235.1331 204.4413,232.2581 204.6813,229.3851 C204.8073,227.8711 204.8373,226.3161 204.8803,224.7601 Z"
                      id="Path" fill="#FFF"/>
                <path d="M170.814304,144.367155 C178.365682,148.9572 189.871664,159.660291 181.748119,171.039573 C172.185929,181.073062 158.418535,169.568982 151.634201,164.366134 C145.343449,160.333898 138.275437,170.704507 144.112,175.412823 C193.135736,211.708059 213.030606,145.567387 174.633685,138.970386 C170.406047,138.243425 168.835891,142.947174 170.814304,144.367155 Z"
                      id="Fill-1" fill="#000"/>
                <path d="M91.0715,112.8926 C95.7065,105.9386 106.2865,106.9626 108.8395,115.2146 C110.2225,119.6846 108.3125,123.7026 108.4115,128.1666 C108.4945,131.9376 108.2475,136.1396 107.0915,139.7916 C104.4555,148.1196 96.9655,154.0016 88.1045,153.7576 C79.2725,153.5146 71.4935,147.9246 67.7945,140.0516 C64.0825,132.1486 64.8685,123.9696 67.5785,115.9336 C67.7085,115.5476 68.2145,115.3606 68.5195,115.6856 C71.7228333,119.089767 74.0678333,122.683517 76.4943148,126.495785 L78.9809333,130.40279 C80.8812656,133.344819 83.6431037,137.103142 87.1914615,136.867072 L87.7238987,136.814547 C88.7099852,136.729908 88.5588846,136.9256 89.3195,135.5816 C89.6715,134.9596 89.6075,133.8036 89.7775,133.0696 L89.8365,132.8216 L89.8365,132.8216 L89.8043384,132.68798 C89.7292832,132.332503 89.6547866,131.66266 89.5942529,130.500284 L89.5815,130.2436 C89.3245,124.8066 87.7875,117.8196 91.0715,112.8926 Z"
                      id="Path" fill="#000"/>
                <path d="M208.5632,117.5221 C207.7322,108.6281 220.2362,106.6531 224.3932,113.2341 C226.561303,116.665997 227.192546,120.977055 227.67203,125.0615 L227.8962,127.0001 C228.3882,131.1951 228.5832,135.5591 226.7622,139.4721 C223.8942,145.6351 217.6572,148.8931 210.9292,148.3771 C204.5042,147.8831 198.6422,144.1581 195.5522,138.5031 C192.7972,133.4571 190.0582,123.6051 193.4042,118.3421 C193.6062,118.0231 194.0102,117.9821 194.2872,118.2281 C197.4492,121.0351 197.9642,126.1551 199.8442,129.8121 C201.7832,133.5841 204.7242,137.2601 209.1812,137.8331 C213.4452,138.3811 215.0742,136.0521 213.9862,131.9871 C212.5832,126.7391 209.0912,123.1691 208.5632,117.5221 Z"
                      id="Path" fill="#000"/>
                <path d="M94.4489,60.0159 L96.4937284,59.2327124 C103.499922,56.5860716 113.118768,53.5268605 118.8149,59.2239 C122.3289,62.7369 122.9979,67.9119 120.4899,72.1989 C117.4509,77.3919 111.9999,77.5199 106.7359,78.2849 C100.7489,79.1549 94.6599,80.8089 89.0859,83.1669 C82.8069,85.8239 76.9799,89.1359 71.2709,92.8349 C65.8449,96.3499 60.4379,102.0949 53.9429,103.1779 C53.6779,103.2219 53.3769,103.1079 53.3079,102.8169 C51.8329,96.4669 55.9319,90.2179 59.5899,85.2639 C64.0159,79.2659 69.3789,74.3429 75.3729,69.9289 C81.1579,65.6679 87.7679,62.5889 94.4489,60.0159 Z"
                      id="Path" fill="#000"/>
                <path d="M221.7162,82.5925 L222.340762,82.4830541 C226.589355,81.7757704 230.439386,81.9386395 233.6412,85.3035 C236.0852,87.8705 237.0272,91.1975 235.8622,94.5915 C234.7872,97.7225 232.3832,100.9035 228.8942,101.5595 C217.1152,103.7755 204.0682,103.4095 192.2302,101.7315 C186.814067,100.963367 181.349151,100.023624 176.073673,98.5415284 L173.646557,97.8379125 C169.242357,96.5798884 164.200291,95.2655909 161.0012,92.0265 C159.8512,90.8625 160.5142,89.1965 161.8902,88.6575 C167.4722,86.4715 175.1232,87.6345 181.0752,87.4635 C187.9992,87.2655 194.9342,86.7465 201.8252,86.0315 C208.5592,85.3315 215.0752,83.8105 221.7162,82.5925 Z"
                      id="Path" fill="#000"/>
            </g>
        </g>
        <g id="Beard" transform="translate(454.999934, 820.999659) scale(1 1)" fill="#000">
            <g id="Beard/None" stroke="none" stroke-width="1" fill="none" fill-rule="evenodd" fill-opacity="0"/>
        </g>
        <g id="Mask" transform="translate(360.000000, 783.000000) scale(1 1)" fill="#000">
            <g id="Mask/None" stroke="none" stroke-width="1" fill="none" fill-rule="evenodd" fill-opacity="0"/>
        </g>
        <g id="Accessories" transform="translate(379.000000, 724.000000) scale(1 1)" fill="#000">
            <g id="Accessories/None" stroke="none" stroke-width="1" fill="none" fill-rule="evenodd" fill-opacity="0"/>
        </g>
    </g>
</svg>