<svg viewBox="376.1081081081081 536.55 383.78378378378363 479.0625" xmlns="http://www.w3.org/2000/svg" overflow="visible" xmlns:xlink="http://www.w3.org/1999/xlink" width="383.78378378378363px" height="479.0625px"><g id="Master/Character/Avatar" stroke="none" stroke-width="1" fill="none" fill-rule="evenodd"><g id="Head" transform="translate(332.000000, 483.000000) scale(0.9978902953586498 1)"><g id="Head/Short 5" stroke="none" stroke-width="1" fill="none" fill-rule="evenodd"><path d="M242.041161,75.2596156 C298.821805,75.2596156 357.551668,119.271611 378.365264,147.356837 C395.864342,170.969555 405.286153,277.745152 405.286153,349.905008 C405.286153,364.996849 413.614596,393.445968 411.184129,407.881894 C402.277902,460.781042 363.475367,505.14576 286.676873,505.14576 C209.87838,505.14576 154.814935,474.704319 97.7325351,392.972519 C70.0358893,392.972519 56.6129701,371.732631 56.4152532,338.213866 C56.2871511,315.868022 65.1995229,300.630067 83.1523686,292.5 C76.7512999,204.313833 81.6113554,148.741029 97.7325351,125.781589 C121.914305,91.3424282 185.260516,75.2596156 242.041161,75.2596156 Z" id="Skin" fill="#65c650"/><path d="M218.1465,56.5559 C253.9965,52.9259 289.1265,55.9759 324.4565,62.2869 C327.1565,62.7759 328.6865,64.5469 329.2555,66.6759 C345.8965,67.4359 362.5565,68.6569 379.1755,69.5669 C385.2065,69.8969 388.6255,75.8559 385.8755,81.2369 C385.3265,82.3059 384.7555,83.3459 384.1755,84.3859 L384.90416,84.145677 C389.903636,82.5418162 395.304128,81.751086 400.1755,84.2969 C406.3755,87.5369 408.8065,94.6859 407.4365,101.2659 C407.0855,102.9459 406.4965,104.5559 405.8265,106.1269 C407.1865,106.0369 408.5565,106.0669 409.9165,106.2469 C417.1565,107.2069 422.5365,112.7569 422.9165,120.1469 C423.4765,131.3059 416.2865,142.6269 407.8165,150.6159 C409.0455,153.1469 409.5165,156.1269 409.0055,159.1469 C407.9855,165.1169 403.5875,168.6919 398.4895,171.0239 C400.6155,177.7749 401.6205,184.8329 401.0275,192.0459 C400.8295,194.4539 398.7235,196.4429 396.5005,196.9309 C404.7865,219.7449 408.9805,244.2389 411.9965,268.1059 C414.1465,285.0869 415.2065,302.1669 415.3355,319.2759 C415.398611,327.000344 415.271302,334.73348 414.947253,342.459154 L414.8165,345.3559 C414.4165,353.7069 414.3965,362.4759 412.8965,370.7369 C418.0165,379.4459 420.0765,390.2569 420.9465,400.0159 C422.0265,412.0959 420.3165,424.5559 416.5055,436.0469 C402.1255,479.4659 358.7265,506.8659 315.1355,513.9869 C274.7865,520.5769 228.0965,511.7069 204.5165,475.0559 C204.1465,474.4759 204.9365,473.9969 205.3965,474.3769 C222.2665,488.0959 241.8355,494.2159 263.0965,497.1959 C299.8565,502.3369 341.1755,493.6159 370.6755,470.4969 C384.8355,459.3969 395.0455,443.2369 399.5365,425.8459 C401.8265,416.9569 402.6165,407.6859 401.7155,398.5369 C400.7955,389.2569 396.6865,381.3369 394.0965,372.5669 C393.2265,369.6059 394.1465,366.8559 395.9565,364.8969 C396.4655,357.7759 397.6665,350.5959 398.1255,343.4969 C398.6355,335.4259 398.9465,327.3559 399.0565,319.2759 C399.2665,302.5159 398.5665,285.7259 397.1565,269.0369 C394.5765,238.4759 387.7265,208.6569 383.7065,178.3559 C382.217833,179.690867 380.0844,180.239031 377.848178,179.072708 L377.6165,178.9459 L376.3965,178.2469 C376.3265,178.2469 376.2465,178.2569 376.1755,178.2659 C367.8265,179.0769 359.1665,177.9169 351.1665,175.4259 C342.7955,172.8269 335.0265,168.8269 328.0855,163.4969 C326.7665,170.1859 326.2155,176.9459 326.2065,183.7659 C326.1965,188.0259 321.6865,190.2369 318.1065,188.4169 C302.2365,180.3559 287.0765,171.0669 272.6865,160.6269 C271.0055,169.2369 269.3265,177.8459 267.6355,186.4659 C266.9865,189.7869 262.7555,191.1269 260.0455,189.5469 C249.2665,183.2759 239.9565,175.0669 232.3765,165.3059 C230.863167,168.1999 229.345389,171.093456 227.817241,173.980641 L225.5165,178.3059 C223.2465,182.5559 220.2065,187.2569 215.2365,188.6159 C209.9765,190.0559 205.5855,186.6469 203.8165,181.8859 C203.2765,180.4069 202.7765,178.8859 202.3165,177.3559 C197.8355,187.5869 192.7765,197.5869 187.0565,207.1269 C178.4765,221.4359 168.1755,234.1859 157.9065,247.2659 C154.7865,251.2369 149.4465,247.4459 149.0165,243.5869 C148.7665,241.3169 148.5565,239.0369 148.3755,236.7659 C142.3915,248.8419 136.1475,260.8049 129.3445,272.4209 L130.3185,276.2379 L130.3185,276.2379 C133.1255,287.5159 135.4565,298.8739 137.9905,310.2119 C138.8085,313.8699 136.8645,319.0999 132.5905,319.7229 C127.4845,320.4669 122.6535,323.0759 117.4235,321.2809 C111.7205,319.3229 110.5935,314.3939 107.9015,309.7219 C107.3645,308.7909 106.7395,307.9359 106.0675,307.1239 L105.8965,307.3459 L105.8965,307.3459 C105.4765,307.8969 104.4765,307.2969 104.7265,306.6669 L105.0195,305.9389 L105.0195,305.9389 C102.7065,303.4839 99.9385,301.4359 97.3935,299.2329 C91.3455,298.2139 84.5425,299.3299 80.3755,301.7869 C70.8855,307.3859 66.5265,318.9259 66.4365,329.5369 C66.3265,341.9569 70.1755,355.9169 76.6755,366.5369 C79.5365,371.2069 83.4565,375.4259 88.6355,377.4969 C93.7765,379.5559 99.3465,378.9169 104.5765,380.8559 C108.0365,382.1469 110.1665,385.9869 108.0765,389.4659 C107.9365,389.7069 107.7765,389.9259 107.6255,390.1569 L109.181019,392.221381 C110.250944,393.651456 111.3665,395.182567 112.4065,396.7759 C115.0665,399.8369 117.8665,402.7869 120.5765,405.7969 C125.5855,411.3459 130.4465,417.0469 135.3755,422.6759 C140.0265,427.9869 144.9465,432.9759 150.0165,437.8859 C154.8065,442.5369 160.7865,446.4459 165.1865,451.4069 C169.4655,456.2469 170.6265,464.6959 163.5855,467.4969 C155.796208,470.60315 148.900566,463.323034 143.657071,458.469499 L143.4365,458.2659 C133.8245,449.4209 125.1445,439.3129 118.2515,428.1839 C111.4235,432.8319 101.5475,433.2759 94.7485,428.6289 C91.1705,426.1839 88.4255,422.0749 87.0915,417.6049 C85.8335,417.8869 84.5765,418.0519 83.3505,418.0329 C82.7195,418.3989 82.0865,418.7549 81.4465,419.0869 C76.3755,421.7259 70.1465,420.5469 67.8265,414.9359 C65.7138913,409.84227 67.8908578,404.057449 69.7937681,399.149752 L70.1865,398.1359 C71.2665,395.3369 72.4565,392.2869 73.9365,389.4169 C69.8165,386.3169 66.2955,382.4659 63.3165,378.0869 C53.3065,363.3369 48.3065,341.7659 50.5165,324.1669 C51.8465,313.5469 56.8355,302.5469 65.0055,295.3859 L64.7065,294.6059 L64.7065,294.6059 C62.4165,288.7969 60.3355,282.9659 58.9865,276.8269 C57.4065,269.6469 56.6355,262.2069 55.9365,254.8969 C54.4565,239.4569 54.8565,223.6669 56.8265,208.2869 C60.5265,179.3369 69.9065,150.9169 86.5565,126.8269 C81.8355,121.1759 78.0965,114.5259 80.0455,106.8769 C80.9365,103.3659 82.9655,100.0369 86.0265,98.0259 C87.7155,96.9169 89.7265,96.7469 91.4165,95.8269 L91.9246563,95.5471104 C92.6669844,95.1139329 92.0991765,95.1598412 91.6565,93.1469 C89.9065,85.1059 91.3565,77.3369 100.2065,74.6669 C108.5365,72.1569 116.4165,77.4869 121.3465,83.8369 C134.2465,74.6859 151.2465,69.8969 166.1965,65.8269 C183.1965,61.2159 200.6355,58.3369 218.1465,56.5559 Z M78.8069,326.2562 C78.7459,319.7062 84.9559,315.6662 91.0669,316.7372 C95.1702571,317.451271 98.5933031,319.90018 101.807624,322.431371 L103.374768,323.671291 C107.288878,326.74416 111.782567,330.056933 114.1159,334.4072 C117.5359,340.8272 110.3069,349.4662 103.5569,344.9662 C98.9265667,341.8632 95.95861,336.891311 92.921411,332.272642 L92.6069,331.7962 C91.2269,329.7262 90.0169,327.5262 88.1259,325.8662 L87.7174162,325.508484 C87.0959496,324.978762 86.4285364,324.495291 85.6259,324.2662 C84.0775129,323.821039 81.2095629,324.444452 80.526766,326.287794 L80.4659,326.4762 C80.2159,327.4072 78.8169,327.2062 78.8069,326.2562 Z" id="Ink" fill="#000"/></g></g><g id="Face" transform="translate(491.000000, 669.000000) scale(1 1)" fill="#000"><g id="Face/Catrina" stroke="none" stroke-width="1" fill="none" fill-rule="evenodd"><path d="M116.751859,92.4369905 C109.446106,80.1623003 109.446106,72 90.8252194,72 C72.2043332,72 38.2834744,120.230565 67.7076564,138.894553 C97.1318384,157.558541 128,139.571487 128,127.815667 C128,116.059847 124.057612,104.711681 116.751859,92.4369905 Z" id="Path-30" fill="#000"/><path d="M236.751859,92.4369905 C231.881357,78.8123302 223.239144,72 210.825219,72 C192.204333,72 159.299008,116.965438 188.72319,135.629427 C218.147372,154.293415 237.967738,140.78998 241.5,129.998506 C243.854841,122.80419 242.272127,110.283685 236.751859,92.4369905 Z" id="Path-30-Copy" fill="#000"/><path d="M170.814304,144.367155 C178.365682,148.9572 189.871664,159.660291 181.748119,171.039573 C172.185929,181.073062 158.418535,169.568982 151.634201,164.366134 C145.343449,160.333898 138.275437,170.704507 144.112,175.412823 C193.135736,211.708059 213.030606,145.567387 174.633685,138.970386 C170.406047,138.243425 168.835891,142.947174 170.814304,144.367155 Z" id="Fill-1" fill="#000"/><path d="M82.9633,102.1464 C83.7976284,91.7901242 99.5703,89.4384 101.1393,99.6864 C102.5443,108.8664 100.8903,117.2994 96.7553,125.5644 C92.8043,133.4604 82.8737826,129.776544 82.1227826,122.586544 C81.1160984,112.948648 82.4443,108.588596 82.9633,102.1464 Z" id="Path" fill="#FFF"/><path d="M203.027,97.5615 C205.226,94.6815 208.401,92.7155 212.205,93.8265 C224.09,97.2995 220.587,114.1725 216.413,122.3855 C214.145,126.8455 206.814,127.9765 203.501,124.0495 C198.101,117.6455 195.515,104.8565 202.38,98.5485 C202.566,98.2225 202.773,97.8935 203.027,97.5615 Z" id="Path" fill="#FFF"/><path d="M99.5878485,44.158954 L101.46522,43.830359 C107.273019,42.825914 114.494349,41.860754 118.602849,46.529954 C120.781849,49.005954 121.531849,53.607954 118.602849,55.977954 C113.450849,60.147954 107.754849,58.531954 101.580849,58.884954 C96.4928485,59.176954 91.6028485,60.018954 86.7018485,61.419954 C75.9498485,64.492954 67.1888485,70.102954 58.0058485,76.262954 C56.8008485,77.070954 55.5708485,75.529954 56.1458485,74.402954 C61.4468485,64.019954 71.7198485,55.490954 82.0098485,50.291954 C87.5018485,47.516954 93.5118485,45.214954 99.5878485,44.158954 Z" id="Path" fill="#000"/><path d="M191.609506,43.1791158 L193.046436,43.4731966 C208.683673,46.7418053 229.000103,53.2711194 236.405089,68.6305742 C236.687253,70.8024554 236.38912,71.267933 236.146684,71.5720495 L236.065966,71.6732492 C235.866199,71.9329469 235.7068,72.2909387 234.765412,72.5865355 C234.504177,72.5242935 234.240342,72.4583708 233.973712,72.3884969 C230.579396,71.4989712 227.893836,70.2735244 225.293929,69.001977 L222.47497,67.6131776 C219.204414,66.0095592 215.904982,64.4643049 212.408341,63.3235398 C204.946211,60.8895949 197.270767,59.1750326 189.476408,58.2594952 C187.78704,58.0612287 186.160285,57.4910676 184.876893,56.5139044 C183.658696,55.5863805 182.728071,54.302202 182.303759,52.595249 C181.75385,50.3861791 181.911882,48.7137319 183.097143,46.7208274 C183.988386,45.2241988 185.263613,44.1868396 186.727895,43.5911526 C188.220668,42.9838756 189.920175,42.8407103 191.609506,43.1791158 Z" id="Path" fill="#000"/><path d="M215.061057,223.563407 C213.096325,224.48898 210.770892,224.632349 208.418336,224.759865 C207.111197,224.831384 206.067709,224.889038 205.040872,225.001067 C202.218505,225.309116 199.428691,225.773071 196.883442,226.441255 C194.222795,227.139763 191.323293,227.982162 189.237319,229.06134 C188.741298,229.318146 188.27372,229.587609 187.805488,229.857662 C187.378525,230.103916 186.967228,230.340987 186.53376,230.569571 C186.035953,230.832129 185.563231,231.107308 185.093022,231.381768 C184.802268,231.613356 184.744833,231.670315 184.686281,231.72961 C184.598171,231.818708 184.495681,231.91842 184.378622,232.02539 C184.218306,232.17189 184.030524,232.332259 183.833857,232.477657 C183.506648,232.743419 183.331074,232.816623 183.179359,232.849366 C182.927612,232.903578 182.688866,232.930284 182.457243,232.915822 C182.240065,232.902262 182.035459,232.851827 181.833408,232.769263 C180.8247,232.357181 180.527207,231.680902 180.557698,230.96303 C180.603969,229.873667 181.434953,228.667543 182.200995,227.926109 C183.982195,226.203332 186.452479,224.412395 189.422848,223.126603 C192.812309,221.658894 196.520491,220.547763 200.779719,219.782118 C203.42658,219.306145 206.491181,218.869249 209.374834,218.924435 C211.450486,218.964158 213.431992,219.262493 215.068402,220.007512 C216.073254,220.464858 216.555609,221.115387 216.555609,221.765454 C216.555609,222.42847 216.054628,223.095402 215.061057,223.563407 Z" id="Path-Copy-2" fill="#000" transform="translate(198.555609, 225.919710) rotate(-104.000000) translate(-198.555609, -225.919710)"/><path d="M200.505447,229.643697 C198.540715,230.569271 196.215283,230.712639 193.862726,230.840156 C192.555587,230.911674 191.512099,230.969328 190.485262,231.081358 C187.662895,231.389407 184.873081,231.853361 182.327833,232.521546 C179.667185,233.220054 176.767684,234.062452 174.68171,235.14163 C174.185689,235.398436 173.71811,235.667899 173.249878,235.937952 C172.822916,236.184206 172.411618,236.421277 171.978151,236.649861 C171.480344,236.912419 171.007622,237.187598 170.537413,237.462058 C170.246658,237.693646 170.189223,237.750605 170.130672,237.8099 C170.042562,237.898998 169.940071,237.99871 169.823012,238.105681 C169.662696,238.25218 169.474915,238.412549 169.278248,238.557947 C168.951039,238.823709 168.775465,238.896913 168.62375,238.929656 C168.372003,238.983868 168.133257,239.010574 167.901634,238.996112 C167.684456,238.982552 167.47985,238.932117 167.277799,238.849553 C166.269091,238.437471 165.971598,237.761192 166.002089,237.04332 C166.048359,235.953957 166.879344,234.747833 167.645386,234.006399 C169.426586,232.283623 171.89687,230.492685 174.867239,229.206893 C178.256699,227.739184 181.964882,226.628053 186.22411,225.862408 C188.870971,225.386435 191.935571,224.949539 194.819225,225.004725 C196.894877,225.044448 198.876382,225.342783 200.512793,226.087802 C201.517644,226.545148 202,227.195677 202,227.845744 C202,228.508761 201.499019,229.175692 200.505447,229.643697 Z" id="Path-Copy-3" fill="#000" transform="translate(184.000000, 232.000000) rotate(-104.000000) translate(-184.000000, -232.000000)"/><path d="M173.505447,229.643697 C171.540715,230.569271 169.215283,230.712639 166.862726,230.840156 C165.555587,230.911674 164.512099,230.969328 163.485262,231.081358 C160.662895,231.389407 157.873081,231.853361 155.327833,232.521546 C152.667185,233.220054 149.767684,234.062452 147.68171,235.14163 C147.185689,235.398436 146.71811,235.667899 146.249878,235.937952 C145.822916,236.184206 145.411618,236.421277 144.978151,236.649861 C144.480344,236.912419 144.007622,237.187598 143.537413,237.462058 C143.246658,237.693646 143.189223,237.750605 143.130672,237.8099 C143.042562,237.898998 142.940071,237.99871 142.823012,238.105681 C142.662696,238.25218 142.474915,238.412549 142.278248,238.557947 C141.951039,238.823709 141.775465,238.896913 141.62375,238.929656 C141.372003,238.983868 141.133257,239.010574 140.901634,238.996112 C140.684456,238.982552 140.47985,238.932117 140.277799,238.849553 C139.269091,238.437471 138.971598,237.761192 139.002089,237.04332 C139.048359,235.953957 139.879344,234.747833 140.645386,234.006399 C142.426586,232.283623 144.89687,230.492685 147.867239,229.206893 C151.256699,227.739184 154.964882,226.628053 159.22411,225.862408 C161.870971,225.386435 164.935571,224.949539 167.819225,225.004725 C169.894877,225.044448 171.876382,225.342783 173.512793,226.087802 C174.517644,226.545148 175,227.195677 175,227.845744 C175,228.508761 174.499019,229.175692 173.505447,229.643697 Z" id="Path-Copy-4" fill="#000" transform="translate(157.000000, 232.000000) scale(-1, 1) rotate(-82.000000) translate(-157.000000, -232.000000)"/><path d="M152.505447,226.643697 C150.540715,227.569271 148.215283,227.712639 145.862726,227.840156 C144.555587,227.911674 143.512099,227.969328 142.485262,228.081358 C139.662895,228.389407 136.873081,228.853361 134.327833,229.521546 C131.667185,230.220054 128.767684,231.062452 126.68171,232.14163 C126.185689,232.398436 125.71811,232.667899 125.249878,232.937952 C124.822916,233.184206 124.411618,233.421277 123.978151,233.649861 C123.480344,233.912419 123.007622,234.187598 122.537413,234.462058 C122.246658,234.693646 122.189223,234.750605 122.130672,234.8099 C122.042562,234.898998 121.940071,234.99871 121.823012,235.105681 C121.662696,235.25218 121.474915,235.412549 121.278248,235.557947 C120.951039,235.823709 120.775465,235.896913 120.62375,235.929656 C120.372003,235.983868 120.133257,236.010574 119.901634,235.996112 C119.684456,235.982552 119.47985,235.932117 119.277799,235.849553 C118.269091,235.437471 117.971598,234.761192 118.002089,234.04332 C118.048359,232.953957 118.879344,231.747833 119.645386,231.006399 C121.426586,229.283623 123.89687,227.492685 126.867239,226.206893 C130.256699,224.739184 133.964882,223.628053 138.22411,222.862408 C140.870971,222.386435 143.935571,221.949539 146.819225,222.004725 C148.894877,222.044448 150.876382,222.342783 152.512793,223.087802 C153.517644,223.545148 154,224.195677 154,224.845744 C154,225.508761 153.499019,226.175692 152.505447,226.643697 Z" id="Path-Copy-5" fill="#000" transform="translate(136.000000, 229.000000) scale(-1, 1) rotate(-82.000000) translate(-136.000000, -229.000000)"/><path d="M140.191602,238.299837 C130.505326,236.140491 121.862719,232.53856 115.544139,227.937326 C113.3474,226.337748 112.777823,224.648619 113.238651,223.103694 C113.756819,221.366535 115.637522,219.79211 118.202379,218.736034 C120.775181,217.676687 123.993429,217.154243 127.104804,217.42057 C129.808406,217.651993 132.499713,218.46091 134.629682,220.138575 L135.074685,220.474069 C138.831191,223.251215 143.726262,225.529831 149.303855,226.99853 C154.679747,228.414118 160.692139,229.074827 166.913984,228.690611 C178.763888,227.959125 186.931438,224.457103 195.612653,219.701417 C196.688715,219.100999 197.765466,218.48176 198.847437,217.852552 C199.530723,217.282179 200.478952,216.915599 201.531745,216.723261 C202.700684,216.509704 204.023027,216.521787 205.234192,216.752759 C206.402366,216.975533 207.446656,217.39768 208.14688,217.959529 C208.812386,218.493522 209.189708,219.153197 209.067277,219.911987 C208.27267,224.840478 203.557466,229.238946 196.859715,232.692672 C189.421007,236.528476 179.560457,239.182111 170.27718,240.112824 C160.049735,241.13804 149.62824,240.403532 140.191602,238.299837 L140.191602,238.299837 Z" id="Path" fill="#000"/><circle id="Oval" fill="#000" cx="49" cy="143" r="4"/><circle id="Oval-Copy" fill="#000" cx="78" cy="159" r="4"/><circle id="Oval-Copy-2" fill="#000" cx="113" cy="159" r="4"/><circle id="Oval-Copy-3" fill="#000" cx="136" cy="135" r="4"/><circle id="Oval-Copy-5" fill="#000" cx="209" cy="159" r="4"/><circle id="Oval-Copy-6" fill="#000" cx="231" cy="159" r="4"/><circle id="Oval-Copy-7" fill="#000" cx="245" cy="138" r="4"/><path d="M142,172.462114 C147.275651,148.820705 154.618384,137 164.028199,137 C178.14292,137 204.440994,145.675898 191.223681,172.462114 C182.412139,190.319591 166.004245,190.319591 142,172.462114 Z" id="Path-29" fill="#000"/></g></g><g id="Beard" transform="translate(454.999934, 820.999659) scale(1 1)" fill="#000"><g id="Beard/None" stroke="none" stroke-width="1" fill="none" fill-rule="evenodd" fill-opacity="0"/></g><g id="Mask" transform="translate(360.000000, 783.000000) scale(1 1)" fill="#000"><g id="Mask/None" stroke="none" stroke-width="1" fill="none" fill-rule="evenodd" fill-opacity="0"/></g><g id="Accessories" transform="translate(379.000000, 724.000000) scale(1 1)" fill="#000"><g id="Accessories/None" stroke="none" stroke-width="1" fill="none" fill-rule="evenodd" fill-opacity="0"/></g></g></svg>